<?xml version="1.0" encoding="UTF-8"?>
<svg id="Layer_1" xmlns="http://www.w3.org/2000/svg" version="1.1" viewBox="0 0 1062.48 535.17">
  <!-- Generator: Adobe Illustrator 29.8.2, SVG Export Plug-In . SVG Version: 2.1.1 Build 3)  -->
  <defs>
    <style>
      .st0 {
        fill: #987f00;
      }

      .st1 {
        fill: #666;
      }
    </style>
  </defs>
  <path class="st1" d="M707.73,319.69l7.91-52.84-16.6-2.49-7.91,52.84,7.5,1.12.04-.21.14-.77.81.1.8.11-.12.79-.03.22,7.46,1.12ZM701.36,311.47l-.8-.14-.8-.14.11-.81.1-.8.78.12.78.12.04.05.04.05-.12.78-.12.78ZM702.54,303.72l-.82-.12-.82-.12.12-.79.12-.79.82.12.82.13-.12.79-.12.79ZM703.71,296.05l-.8-.14-.8-.14.12-.79.12-.79.81.1.81.11-.13.82-.12.82ZM704.9,288.3l-.82-.12-.82-.12.12-.79.12-.79.82.12.82.13-.12.79-.12.79ZM706.05,280.58l-.79-.12-.79-.12.12-.79.12-.79.81.1.81.11-.14.8-.14.8ZM707.26,272.88l-.8-.14-.8-.14.1-.77.1-.77.82.12.82.12-.12.79-.12.79ZM568.11,388.05l2.76-.5-1.9-10.48-.59.11-.04-.21,4.99-.93.61-.11-.16-.87.2-.04,2.86,14.13,10.83-1.89-3.55-17.77-10.84,1.89.39,2-.19.04-.45-2.07-8.02,1.45-.04-.22.48-.09-.12-.65-3.25.58.12.65.45-.08.04.22-.44.08.91,4.58,3.71-.65.04.21-.69.12,1.9,10.48ZM678.1,409.08l1.77-.41-.12-.53-.3.07-.03-.13.3-.07-.69-2.92-2.5.58.33,1.43.72-.17.36,1.49.26-.06.03.13-.26.06.12.53ZM997.55,360.74l2.13.29.28-2.04-2.87-.39.06-.43-11.59-1.59-.45,3.27,11.6,1.59.11-.8.74.1ZM835.69,345.57l2.48.3.24-1.92-3.04-.37.06-.46-11-1.34-.36,2.98,11.02,1.34.07-.6.53.07Z"/>
  <path class="st0" d="M567.86,368.32l-6.46,1.26.65,3.58,6.46-1.26-.65-3.58ZM998.72,368.12l-2.13-.29.96-7.09,2.13.29-.96,7.09ZM837.31,353.17l-2.48-.3.86-7.3,2.48.3-.86,7.3ZM585.99,378.43l-10.94,2.09.32,1.74,10.94-2.09-.32-1.74ZM711.59,275.09c.24,2.25-1.8,2.94-1.03,7.36.25,1.44-3.57.7-3.41-.48.28-2.19,1.08-4.69,1.03-7.36-.02-1.26,3.27-.84,3.41.48h0ZM700.94,317.21c-.83-.24-.99-3.23-.3-5.15.7-1.94,2.54-1.35,3.07-.18.96,2.1,1.15,4.58.29,5.15-.66.44-1.57.62-3.07.18h0ZM679.61,414.92l1.77-.41-1.34-5.73-1.77.41,1.34,5.73Z"/>
</svg>