<?xml version="1.0" encoding="UTF-8"?>
<svg id="Layer_1" xmlns="http://www.w3.org/2000/svg" version="1.1" viewBox="0 0 1062.48 535.17">
  <!-- Generator: Adobe Illustrator 29.8.2, SVG Export Plug-In . SVG Version: 2.1.1 Build 3)  -->
  <defs>
    <style>
      .st0 {
        fill: #898989;
      }

      .st1 {
        fill: #987f00;
      }
    </style>
  </defs>
  <path class="st1" d="M578.99,384.95l.66-.12.66-.12-.6-3.33-.56-3.1-1.32.24.56,3.1.6,3.33h0ZM984.88,368.13l-3.4-.36.15-1.45,3.4.35-.15,1.45h0ZM973.39,360.27l-3.19-.35.28-2.85,3.19.35-.28,2.85ZM930.14,353.68l-2.35-.3.61-4.87,2.35.3-.61,4.87ZM916.26,351.77l-2.29-.29.6-4.75,2.29.29-.6,4.75ZM924.97,306.28l5.75.77-.38,2.72-5.75-.77.38-2.72ZM926.87,293.8l5.29.73.37-2.66-5.29-.73-.37,2.66ZM694.78,290.93l-.75,5.04-5.65-.86.75-5.04,5.65.86ZM695.51,286.24l-.65,4.24-5.65-.86.65-4.24,5.65.86ZM567.86,368.32l-6.46,1.26.65,3.58,6.46-1.26-.65-3.58ZM573.24,334.27l4.84-.98.67,3.67-4.84.98-.67-3.67ZM457.63,394.32l4.17-.88.62,3.08-4.17.88-.62-3.08ZM472.85,320.61l-.32-1.53-3,.62.32,1.53,3-.62ZM170.36,342.91l-5.94-.19-.08,3,5.94.19.08-3ZM600.97,91.02l4.26.64-.36,2.42-4.26-.64.36-2.42ZM540.88,75.25l.35-2.55-4.19-.57-.35,2.54,4.19.57h0ZM546.14,89.34l-8.02-1.11-.27,1.92,8.02,1.11.27-1.92ZM552.26,46.59l-7.89-1.09-.26,1.89,7.89,1.1.26-1.89h0ZM605.9,64.16l-7.23-.98-.23,1.73,7.23.98.23-1.73ZM595.35,249.09l5.13-.94.81,4.42-5.13.94-.81-4.42ZM444.63,238.47l-3.51-.23-.31,4.74,3.51.23.31-4.74ZM948.13,284.78l-.71,4.65-2.61-.38.7-4.65,2.62.38ZM715.67,265.78l-1.48-.23-.5,3.28,1.48.23.5-3.28ZM449.38,375.17l4.74-.96-.29-1.43-4.74.96.29,1.43Z"/>
  <g>
    <path class="st0" d="M447.54,399.67l2.39-.5,3.2-.64-.06-.31-.15-.7h.08l.08-.03.15.7.06.31,2.47-.51,2.99-.61-.17-.84-.17-.84.37-.08.37-.08.67-.13.67-.13-.16-.78-.16-.78-1.96.4-2.6.52-.18-.94-.18-.95.07-.02.07-.02.18.88.18.88,3.34-.67,2.7-.55-1.96-9.64-1.95-9.65-2.7.55-3.34.67.15.72.15.72h-.08l-.08.03-.15-.72-.15-.72-.61.12-.08-.37-1.42.3.07.37-.94.2.45,2.21.54,2.65-.08.02h-.08l-.19-.88-2.91.6-2.68.54.42,2.02.61,3.04,2.68-.54,2.91-.6-.28-1.35-.27-1.35h.08l.08-.03,1.59,7.87,1.06,5.25h-.14l-.78-3.81-1.3-6.43-2.91.6-2.68.54,1.59,7.87,1.14,5.64v-.02ZM454.56,389.45l-1.04-5.15-1.04-5.15.08-.02h.08l1.04,5.14,1.04,5.15-.08.02h-.08ZM565,390.75l.75-.14-1.56-8.54,10.33-1.89-.39-2.12.62-.11.22,1.17,10.55-1.95,1.75,9.47.64-.12-3.15-17.03-2.15.4-.98-5.16,2.17-.41-5.06-27.37-3.78.77-.72-3.66,3.83-.78-1.04-5.58-11.11,2.05,2.44,13.22-.65.12-2.41-13.23-11.06,2.02,6.88,37.74,4.21-.83.63,3.42-4.21.78,3.24,17.75h.01ZM573.89,376.73l-4.47-24.49-1.73.32-.84-4.62,1.7-.31-.25-1.37.6-.11,3.75,20.27,6.92-1.28.93,5.06-6.91,1.28.95,5.13-.66.12h0ZM559.06,354.09l-.78-4.46,6.36-1.12.78,4.46-6.36,1.11h0ZM939.89,323.98l.92-6.49.8-5.78-2.93-.4-2.85-.4-.2,1.43-.3,2.02h-.07l-.07-.02.3-2.02.2-1.43-6.58-.94.12-.89.1-.76-.51-.05-.76-.1-.1.75-.12.9-3.78-.51-.54,3.95-.73,5.19.59.09.59.09v.12l-.6-.08-.6-.08-.24,1.76-.18,1.23,5.77.8,5.86.81.24-1.76.18-1.23-4.48-.62-4.4-.61v-.07l.02-.07,4.4.61,4.48.62.19-1.4.28-2.05-2.68-.37-1.28-.18-.09.67-.09.67h-.07l-.07-.02.1-.73.1-.73,1.35.19,2.75.38.03-.23.03-.23.06.02.06.02-.56,4.16-.42,2.99,2.86.39,2.93.41v-.02ZM931.11,293.2l.12-.87.12-.86.31.06.28-2.05.3-2.22,4.18.58,3.1.43v.07l-.02.06-3.02-.42-4.13-.57-.29,2.15-.27,1.98,5.28.72,4.17.57.27-1.97.29-2.14-.51-.08-.51-.08v-.07l.02-.07.57.08.58.08-.13,1.02-.11.8.32.04.35.05v.07l-.02.06-.33-.04-.34-.05-.16,1.13-.16,1.17,1.35.2,1.35.19.16-1.19.15-1.13-.33-.05-.33-.04v-.07l.02-.07.42.06.43.06v.05l1.57.22.92.15.17-1.22.17-1.22-1.25-.17-1.25-.18-.04.29-.04.29-.2-.03.06-.44.06-.44.1-.71.1-.71-3.71-.51-3.76-.52.02-.06.02-.06,3.75.51,3.71.51.5-3.62.24-1.64-8.75-1.21-8.75-1.21-.33,2.41-.41,2.86,3.19.43,4.2.59v.07l-.02.07-2.39-.34-1.89-.26-.27,1.94-.27,1.94h-.07l-.07-.02.27-1.94.27-1.94-1.74-.24-1.24-.16-.45,3.26-.46,3.31,1.24.17,1.74.24.1-.73.1-.68h.07l.07.02-.09.68-.1.73.45.06-.12.86-.12.86.76.1.46.06h0ZM445.12,253.22l.35-4.69.36-4.69,1.07.08,2.17.17.3-3.93.3-3.93.03-.47.04-.48-2.49-.19-1.35-.1-.02.29-.02.29-.89-.07-.89-.07.02-.29.02-.29-3.16-.24-3.75-.28-.02.32-.02.32-.29-.02-.29-.02-.1,1.29-.1,1.29-.19,2.51-.19,2.51.33.03.25.02-.07.89-.07.89-.24-.02-.33-.02-.22,2.98-.23,2.98-.06.82-.06.82.38.03h.2l-.02.3-.02.29,3.75.28,3.16.24.02-.29.02-.29.89.07.89.07-.02.29-.02.29.29.02.3.02h0v-.02ZM444.32,243.22l-3.51-.23.32-4.74,3.51.23-.32,4.74ZM543.06,263.73l43.4-7.93-.42-2.3,2.55-.46.42,2.31,7.24-1.32-.9-4.95,5.92-1.08-1.15-6.31-13.2,2.41,1.08,5.88-2.58.47-1.08-5.91-43.21,7.89.14.79,28.3-5.17,1.79,9.79-28.42,5.19.12.69h0ZM573.73,257.42l-1.79-9.79,2.64-.48,1.79,9.79-2.65.48h.01ZM541.13,251.89l58.76-10.71-.11-.6-8.06,1.47-1.81-9.92,8.13-1.48-.09-.52-58.96,10.75.11.62,35.82-6.53,1.78,9.78-35.68,6.5.11.64h0ZM581.76,243.87l-1.81-9.92,2.42-.44,1.81,9.92-2.41.44h-.01Z"/>
    <path class="st0" d="M166.33,330.67l-.03,1.16h.1v.26l-.02.26v.11l-.03.11h-.08l-.06,2.1-.06,2.1h.1v.37s0,.36,0,.36h-.09l-.06,2.03-.06,2.02-.66-.02-.66-.02.17-6.02.17-6.02.66.02.66.02-.03,1.16h-.01Z"/>
    <path class="st0" d="M170.63,335.73h0l-.08,2.97-.08,2.96-2.14-.06-2.14-.06.05-2.02.05-2.02h-.06v-.37l.02-.37h.06v-.11l.03-.11v-.47l.03-.47,2.13.06,2.13.06h-.01ZM170.72,332.6l-.09,2.97-2.14-.05-2.14-.06.04-1.43.04-1.43v-.04l-.02-.04h.03l.04.09.04.09.03-.15.03-.15h.02l.13.06.13.06-.03-.06-.03-.06-.04-.07-.04-.07v-.03l.15-.04.14-.04h0l-.14-.06-.14-.05v-.02l.07-.1.07-.11v-.02l.03-.02-.08.03-.08.03-.07.02-.07.03h0s-.02-.16-.02-.16l-.02-.15-.04.08-.04.08h-.04v-.03s0-.02,0-.02l.04-1.08.03-1.08,2.14.06,2.14.06-.09,2.97h.01Z"/>
    <path class="st0" d="M166.07,345.78l.08-2.87,4.65.1.03-1.16-4.79-.12v-.18l-1.32-.04v.18h-.16l.35-12.36,6.21.17h0l.2-5.84-10.84-.34-.11,2.85,2.84.12-.54,19.38,3.41.12h-.01Z"/>
    <path class="st0" d="M541.34,83.43l-.21,1.49-3.02-.42-3.02-.42.21-1.49.21-1.49,3.02.42,3.02.42-.2,1.49h-.01ZM550.55,84.7l-.21,1.49-3.01-.42-3.01-.42.21-1.49.21-1.49,3.01.42,3.01.42-.21,1.49ZM559.91,62.49l-.42,3.01-1.49-.21-1.49-.21.42-3.01.42-3.01,1.49.21,1.49.21-.42,3.01ZM562.98,62.92l-.42,3.01-1.48-.2-1.48-.2.42-3.01.42-3.01,1.48.2,1.48.2-.42,3.01h0ZM546.03,49.6l-.21,1.49-3.02-.42-3.02-.42.21-1.49.21-1.49,3.02.42,3.02.42-.21,1.49Z"/>
    <path class="st0" d="M548.65,48.45l.12.02.57.08-.43,3.07-.43,3.07.6.08.6.08v-.1s-.54-.08-.54-.08l-.55-.08.42-3.02.42-3.03,1.48.2,1.48.21-.42,3.02-.42,3.02-.53-.07-.53-.07h0v-.02l.17-.06.17-.06h0v-.03l-.19-.05-.19-.05h0l.1-.18.09-.17h0v-.02l-.16.08-.16.08h-.04l-.02-.09-.02-.09-.02-.12-.02-.12-.08.18-.08.18h-.04s-.14-.11-.14-.11l-.14-.12h-.01s.05.19.05.19l.05.18h0s-.2,0-.2,0h-.2v.03l.16.11.16.11.39.05.38.05v.05l-.03.05.6.09.6.09.57.07.57.07v-.1s-.54-.08-.54-.08l-.55-.08.42-3.02.42-3.02,1.48.2,1.48.21-.42,3.02-.42,3.02-.54-.08-.54-.08v.1s.56.08.56.08l.57.08.57.07.57.07v-.1s-.53-.08-.53-.08l-.54-.08.42-3.02.42-3.02,1.48.21,1.48.2-.42,3.02-.42,3.02-.55-.08-.55-.08v.1s.56.08.56.08l.56.08.58.08.59.08v-.1s-.54-.08-.54-.08l-.55-.08.42-3.02.42-3.02,1.49.21,1.49.21-.42,3.02-.42,3.02-.55-.08-.55-.08v.1s.57.09.57.09l.58.09.57.07.57.07v-.1s-.54-.08-.54-.08l-.55-.08.42-3.02.43-3.03,1.48.2,1.48.2-.42,3.02-.42,3.02-.55-.08-.55-.08v.1s.57.09.57.09l.58.09.57.07.57.07v-.1s-.53-.08-.53-.08l-.54-.08.42-3.02.42-3.02,1.48.21,1.48.2-.42,3.02-.42,3.02-.55-.08-.55-.08v.1s.54.08.54.08l.55.08-.21,1.49-.21,1.49-.55-.07-.55-.07v.04l-.02.04.55.08.55.08-.42,3.02-.42,3.02-1.48-.2-1.48-.2.42-3.02.42-3.02.54.08.54.08v-.1s-4.21-.58-4.21-.58l-4.22-.58v.1s.54.08.54.08l.55.08-.41,3.02-.41,3.02-1.49-.21-1.49-.21.42-3.02.42-3.02.55.08.55.08v-.1s-.59-.08-.59-.08l-.6-.08-.43,3.08-.43,3.08-3.08-.42-3.08-.42-.08.6-.08.6h.12s.08-.54.08-.54l.08-.55,3.02.42,3.02.42-.21,1.48-.21,1.48-3.02-.41-3.02-.41.08-.55.08-.55h-.06l-.06-.02-.58,4.22-.59,4.22h.06l.06.02.08-.54.08-.54,3.02.42,3.02.42-.2,1.48-.2,1.48-3.02-.42-3.02-.42.07-.55.07-.55h-.1s-.16,1.14-.16,1.14l-.16,1.15h.1s.08-.53.08-.53l.08-.55,3.02.42,3.02.42-.2,1.48-.21,1.48-3.02-.42-3.02-.42.07-.55.07-.55h-.1s-.16,1.14-.16,1.14l-.16,1.15h.1s.08-.53.08-.53l.08-.55,3.02.42,3.02.42-.2,1.48-.2,1.48-3.02-.42-3.02-.42.08-.54.08-.54h-.06l-.06-.02-.37,2.68-.37,2.68h.1s.08-.54.08-.54l.08-.55,3.02.42,3.02.42-.2,1.48-.21,1.48-3.02-.41-3.02-.41.07-.55.07-.55h-.1s-.08.54-.08.54l-.08.55-.55-.08-.38-.05-.05.34-1.26-.18.05-.34-.24-.03-.55-.08.08-.55.08-.55h-.09l-.08.55-.08.55-3.02-.42-3.02-.42.21-1.49.21-1.49,3.02.42,3.02.42-.07.55-.07.55h.04l.04.02.08-.56.08-.56.3-2.13.3-2.13h-.1s-.08.53-.08.53l-.08.54-2.99-.41-2.99-.42h-.06s.21-1.48.21-1.48l.21-1.49,3.02.42,3.02.42-.08.55-.08.55h.1s.09-.57.09-.57l.09-.58.07-.57.07-.57h-.1s-.08.53-.08.53l-.08.54-3.02-.42-3.02-.42.2-1.48.21-1.48,1.25.17,1.25.17,1.77.23,1.77.23-.07.56-.07.56h.04l.04.02.08-.61.09-.61-1.24-.17-1.24-.17.11-.76.11-.76-.61-.09-.61-.09.1-.71.1-.71,1.84.25,1.84.25.43-3.08.43-3.08.08-.58.08-.59h-.1s-.08.54-.08.54l-.08.55-.36-.05-.36-.05v.1s.35.05.35.05l.36.05-.42,3.02-.42,3.02-3.02-.42-3.02-.42.21-1.49.21-1.49,2.28.32,2.28.32v-.1s-2.27-.32-2.27-.32l-2.28-.32.21-1.49.21-1.49,2.28.32,2.28.32v-.1s-2.27-.32-2.27-.32l-2.28-.32.21-1.49.21-1.49,3.02.42,3.02.42-.08.55-.08.55h.1s.08-.56.08-.56l.08-.56.16-1.16.16-1.17h-.1s-.16,1.11-.16,1.11l-.16,1.12-3.02-.42-3.02-.42.42-3.01.42-3.01,3.02.42,3.02.42-.16,1.12-.16,1.12h.1s.16-1.11.16-1.11l.16-1.12.22-1.59.22-1.59.08-.55.08-.55h-.1s-.08.54-.08.54l-.08.55-3.02-.42-3.02-.42.21-1.48.21-1.48,3.02.41,3.02.41-.08.55-.08.55h.1s.08-.54.08-.54l.08-.55.21-1.53.21-1.53.55.08.14.02.05-.37,1.64.22-.05.37-.1.11ZM548.11,57.73l-.04.27.28.04.28.04.04-.27.04-.27-.28-.04-.28-.04-.04.27Z"/>
    <path class="st0" d="M605.08,95.92l-.2,1.49-3.03-.41-3.03-.41.2-1.49.2-1.49,3.03.41,3.03.41-.2,1.49Z"/>
    <path class="st0" d="M602.21,65.43l-.04.31.17.02.55.07-.07.55-.08.55h.1s.07-.53.07-.53l.08-.56,3.03.41,3.03.41-.2,1.5-.2,1.48-3.03-.41-3.03-.41.08-.55.07-.55h-.1s-.16,1.15-.16,1.15l-.16,1.16h.1s.07-.54.07-.54l.08-.55,3.03.41,3.03.41-.2,1.48-.2,1.48-3.03-.41-3.03-.41.07-.54.07-.54h-.1s-.15,1.14-.15,1.14l-.16,1.15h.1s.08-.54.08-.54l.08-.55,3.03.41,3.03.41-.2,1.49-.2,1.49-3.03-.41-3.02-.42.07-.55.07-.55h-.1s-.16,1.14-.16,1.14l-.15,1.15h.1s.08-.54.08-.54l.08-.55,3.03.41,3.03.41-.2,1.49-.2,1.49-3.03-.41-3.03-.41.08-.55.08-.55h-.1s-.15,1.14-.15,1.14l-.16,1.15h.1s.08-.54.08-.54l.08-.55,3.03.41,3.03.41-.2,1.49-.2,1.49-3.03-.41-3.03-.41.07-.55.08-.55h-.1s-.15,1.14-.15,1.14l-.16,1.15h.1s.08-.54.08-.54l.08-.55,3.03.41,3.03.41-.2,1.49-.2,1.49-3.03-.41-3.03-.41.07-.55.08-.55h-.1s-.5,3.68-.5,3.68l-.5,3.69,1.85.25,1.85.25-.1.72-.1.72-.62-.08-.61-.08-.11.77-.11.77-1.23-.17-1.23-.17-.29,2.14-.29,2.14h.1s.08-.54.08-.54l.08-.55,3.03.41,3.03.41-.2,1.49-.2,1.49-3.03-.41-3.03-.41.08-.55.08-.55h-.1s-.16,1.14-.16,1.14l-.15,1.15h.1s.08-.54.08-.54l.08-.55,3.03.41,3.03.4-.2,1.49-.2,1.49-3.03-.41-3.03-.41.08-.55.08-.55h-.1s-.16,1.14-.16,1.14l-.15,1.15h.1s.07-.53.07-.53l.07-.54,3.03.41,3.03.41-.2,1.48-.2,1.48-3.03-.41-3.03-.41.08-.55.08-.55h-.1s-.07.54-.07.54l-.08.55-1.49-.2-1.49-.2.07-.55.08-.55h-.1s-.08.54-.08.54l-.08.55-3.03-.41-3.03-.41.2-1.48.2-1.48,3.03.41,3.03.41-.07.54-.07.54h.1s.16-1.14.16-1.14l.16-1.15h-.1s-.08.54-.08.54l-.08.55-3.03-.41-3.03-.41.2-1.49.2-1.49,3.03.42,3.03.42-.07.55-.07.55h.1s.16-1.14.16-1.14l.16-1.15h-.1s-.08.54-.08.54l-.08.55-3.03-.41-3.03-.41.2-1.49.2-1.49,3.03.41,3.03.41-.07.55-.08.55h.1s.16-1.14.16-1.14l.16-1.15h-.1s-.08.54-.08.54l-.08.55-3.03-.41-3.03-.41.2-1.49.2-1.49,3.03.41,3.03.41-.08.55-.08.55h.1s.16-1.14.16-1.14l.16-1.15h-.1s-.08.54-.08.54l-.08.55-3.03-.41-3.03-.4.2-1.49.2-1.49,3.03.41,3.03.41-.08.55-.08.55h.1s.16-1.14.16-1.14l.16-1.15h-.1s-.07.53-.07.53l-.07.54-3.03-.41-3.03-.41.2-1.48.2-1.48,3.03.41,3.03.41-.08.55-.08.55h.1s.16-1.15.16-1.15l.16-1.16h-.1s-.07.54-.07.54l-.08.55-3.03-.41-3.03-.41.2-1.48.2-1.48,3.03.41,3.03.41-.07.54-.07.54h.1s.16-1.14.16-1.14l.16-1.15h-.1s-.07.54-.07.54l-.08.55-3.03-.41-3.03-.41.2-1.49.2-1.49,3.02.42,3.03.42-.07.55-.07.55h.1s.23-1.72.23-1.72l.23-1.73h-.1s-.15,1.12-.15,1.12l-.15,1.13-3.03-.41-3.03-.41.41-3.03.41-3.03,3.03.41,3.03.41-.15,1.13-.15,1.13h.1s.24-1.72.24-1.72l.23-1.73h-.1s-.08.54-.08.54l-.08.55-3.03-.41-3.03-.41.2-1.49.2-1.49,3.03.41,3.03.41-.08.55-.08.55h.1s.16-1.14.16-1.14l.16-1.15h-.1s-.07.53-.07.53l-.07.54-3.03-.41-3.03-.41.2-1.48.2-1.48,3.03.41,3.03.41-.08.55-.08.55h.1s.16-1.15.16-1.15l.16-1.16h-.1s-.08.54-.08.54l-.07.55-3.03-.41-3.03-.41.2-1.48.2-1.5,3.03.41,3.03.41-.08.56-.07.54h.1s.08-.54.08-.54l.08-.55.55.08.2.02.04-.31,1.51.21-.09-.03ZM473.26,320.94l-.46-2.21,11.49-2.39.46,2.21-11.49,2.39ZM693.04,295.8l.8-5.02,6.45.97-1.23,7.8-4.17-.64-.07.45,4.63.71,1.32-8.57,1.37.21-1.53,10.17-3.31-.48-3.91,25.49-9.61-1.48,4.12-27.09,4.28.67.07-.47-4.28-.67.42-2.76,4.65.71h0ZM694.58,286.07l-.66,4.3,3.67.59.16-1.03.49.07-.16,1.05,2.44.37.95-6.03-6.67-1.02-.23,1.39,4.25.65-.29,1.81-.5-.08.23-1.49-3.68-.59h0ZM722.21,264.79l-.67,4.58-3.95-.64.31-2.11-.3-.05-.6,3.92.31.05.24-1.5,3.95.63-.56,3.58-3.92-.63.08-.53-.33-.05-.13.89,4.24.68-.17,1.16-6.11-.95,1.22-8.01-1.64-.26.17-1.34,1.62.26.11-.65,1.88.27-.15,1.07.29.05.15-1.07,3.96.64h0ZM987.23,370.17l1.64-15.39-11.74-1.25v.21l-.31-.03v-.21l-11.03-1.17-.42,3.88,2.28.24-.04.32-2.27-.24-.21,1.88,3.51.38-.8,7.57-3.52-.38-.18,1.75,23.07,2.46.02-.02ZM984.86,368.15l-15.44-1.63.8-7.57,2.15.22.21-1.9-3.24-.35.03-.31,7.04.75.24-2.12.32.03-.03.24,8.25.88-.81,7.43.91.1-.45,4.22h.02ZM930.25,352.44l.45-3.6,7.47.94-1.28,10.11-7.47-.94.19-1.49,6.06.76.92-7.33-4.7-.59-.87,6.91-1.36-.17.58-4.6h.01ZM952.53,227.81l-4.73,5.58-5.54-4.7,4.73-5.58,5.54,4.7ZM916.45,350.56l.45-3.6,7.47.94-1.27,10.11-7.47-.94.19-1.49,6.06.76.92-7.33-4.7-.59-.87,6.91-1.36-.17.58-4.6Z"/>
  </g>
</svg>