<svg xmlns="http://www.w3.org/2000/svg" width="141.8" height="131.571"><g xmlns="http://www.w3.org/2000/svg" transform="rotate(90 70.9 70.9)"><g id="Basement" class="shadow"><g id="Floor-b" fill="#666"><path d="M78.745 43.893h1.525v6.638h-1.525ZM73.861 43.893h1.526v6.638h-1.526Z"/><path d="M23.883 120.654h6.638v-2.773h-6.829v-3.026h6.676v-14.88h-5.684V89.027h5.685V78.84h-2.06v-5.647h5.074v9.271h12.36v-29.3h24.112v5.99l4.483-.02.02-6.771h12.589v-1.908h-.877v-6.829h4.96v6.83h-1.07V52.4l9.787-.02V40.976l-2.614-.02v-4.31l2.614-.068v-23.09h-2.651v-1.298h-.42v3.701H94.5l.005-13.296L95.207 0h2.164l-.695 2.592v8.453h.42v-1.26h5.436v44.676h-12.57v4.693h10.758v13.772h2.022v21.785l-29.32.019v.534l9.024.02v3.662H70.008v-7.63h5.074v-13.43H55.663v9.5h-9.92V85.44h-12.36v21.708h5.646v-11.33h3.052v14.306h-8.698v7.757h-.277l.021 4.871h-9.244Zm51.2-47.728h22.699V62.13h-7.86v7.05h-2.975v-7.05H66.841v-5.99H55.663v18.694h19.42Zm11.864-18.465H76.341v4.693h10.606Z"/></g><g id="Stairs-b" fill="#987f00"><g id="Connector-Ground_Floor"><path id="stair-1" d="M39.03 95.817v11.331h3.051v-11.33Z"/><path id="stair-2" d="M30.369 114.855h-6.677v3.026h6.677Z"/><path id="stair-3" d="M23.883 120.654h6.638v2.098h-6.638Z"/><path id="stair-4" d="M28.308 73.193v5.647h2.06v-5.647Z"/><path id="stair-7" d="m73.423 95.264 9.023.02-.008 3.662-9.023-.02Z"/><path id="stair-8" d="M86.947 62.13v7.05h2.976v-7.05Z"/><path id="stair-220" d="M86.07 50.455v-6.829h4.96v6.83Z"/><path id="stair-221" d="M98.714 40.967h2.787v-1.492h-2.787Z"/><path id="stair-222" d="M98.251 9.786v1.423h2.404V9.786Z"/><path id="stair-223" d="M45.743 63.342h1.363v4.885h-1.363Z"/><path id="stair-224" d="M54.3 60.601h1.363v4.886H54.3Z"/></g></g><g id="Wall-b" fill="#444"><path d="M54.406 82.335a3.596 3.596 0 1 1-7.193 0 3.596 3.596 0 0 1 7.193 0ZM54.406 58.413a3.596 3.596 0 1 1-7.193 0 3.596 3.596 0 0 1 7.193 0ZM54.406 70.218a3.596 3.596 0 1 1-7.193 0 3.596 3.596 0 0 1 7.193 0ZM91.586 87.582l1.457-6.348 2.03.466-1.456 6.348ZM93.896 87.978l.37-2.16 2.054.352-.37 2.16ZM89.741 85.982h1.667v1.744H89.74ZM90.147 85.385l.382-1.796 1.736.369-.382 1.796ZM86.3 88.344h1.126v1.126H86.3ZM86.3 78.466h1.126v1.127H86.3ZM99.958 81.861h1.852v1.852h-1.852ZM100.359 84.161h1.513v2.547h-1.513ZM99.866 86.847h1.852v1.852h-1.852Z"/></g></g></g></svg>