<svg xmlns="http://www.w3.org/2000/svg" xml:space="preserve" width="141.8" height="133.571"><path fill="#666" d="M15.172 8.028V3.221h4.846V.016h34.641v3.233l17.245.01v21.25h3.62l.004-1.45h14.917v-2.06h5.227v9.996h2.594v-6.524h3.205v5.685h.343v-4.961h17.779V1.446h6.79v23.748h5.304l.008 30.522h3.578v41.318h3.434v21.403h-.802v13.149h-6.81v-13.149h-7.38l-.033-16.985-11.09-.011-.02 8.608h-6.79v-1.569H85.638l-.02-5.132-34.85-.02v23.885h-6.906v-23.885h-2.136l-.019-40.192-13.047-.02v-6.79l13.047-.02.004-14.21-7.024-.02v-3.014l11.99-.02v-5.779l-25.515-.095v-2.594h-2.175V14.856H.016v-6.83Z"/><path fill="#333" d="M88.597 45.826v9.77H54.489v-9.77zm9.326 32.935v1.525h-6.638v-1.525zm0-4.884v1.526h-6.638v-1.526zM71.904 32.902h-20.04v-4.826h20.04Z"/><path fill="#444" d="M118.35 25.846v4.823h-1.698v-4.823zm10.182 36.844v5.995h-14.903V62.69zm-11.363-23.153v1.909h-2.059v-1.91zM80.391 70.689v2.79h-5.496v-2.79zm-.619 3.547-.295 2.775-5.464-.58.294-2.774zM64.335 85.935l-2.616.969-1.91-5.153 2.617-.97zM61.469 90.6v2.79h-5.496V90.6zm.777 4.904v2.79H56.75v-2.79zm4.301-5.641v5.175h-2.799v-5.175Zm7.944 11.191v-2.475h-6.187v2.475zM51.452 75.491l5.247-1.818-.628-1.813-5.247 1.818zm2.155-27.162-2.12-4.8 1.663-.735 2.12 4.801zm81.202 27.661c-.01.155-.083 1.893-.083 1.893l-.981-.043.083-1.892Zm-10.425-53.401-1.695-.2.568-4.81 1.695.2zM89.618 58.731l-.02 4.87 1.696.007.02-4.87zm5.299 9.34.42-4.84-1.676-.146-.42 4.84zm5.259-3.01-4.869-.03-.01 1.667 4.87.03zm28.356-11.791v5.995h-14.903V53.27zM87.618 96.26l-.521-.072-.03.213-.248-.035.188-1.336-.118-.016-.18 1.28-.532-.075.18-1.283-.126-.018-.187 1.34-.22-.031.028-.211-.535-.076-.134.957.252.035-.34 2.426 1.82.256.342-2.442.228.033zm-10.412 2.208.526.013.005-.215.25.007-.035 1.349.118.002.034-1.292.538.014-.033 1.295.126.003.035-1.352.222.006-.005.213.54.015.026-.966-.254-.007.063-2.449-1.837-.048-.064 2.465-.23-.008zm8.813-6.192.527.012.005-.214.25.007-.035 1.348.118.002.034-1.291.538.013-.033 1.295.126.003.035-1.352.223.006-.006.213.54.015.026-.966-.254-.007.063-2.448-1.837-.049-.064 2.465-.23-.007zm-3.375-8.69.444-.282-.116-.182.212-.134.723 1.139.1-.064-.693-1.09.454-.29.695 1.093.106-.068-.726-1.141.189-.12.114.18.457-.289-.518-.816-.215.137-1.314-2.067-1.552.985 1.323 2.08-.195.123zM49.986 32.672l-.524.045.018.214-.25.02-.113-1.344-.117.01.108 1.288-.536.046-.11-1.291-.125.01.114 1.349-.222.018-.019-.212-.538.044.08.963.254-.021.206 2.44 1.832-.153-.208-2.457.23-.018zM34.237 10.973l.146-.506-.206-.06.07-.24 1.296.377.032-.114-1.241-.361.15-.517 1.244.361.036-.12-1.299-.378.062-.214.205.059.152-.519-.928-.27-.071.244-2.352-.683-.514 1.765 2.367.687-.065.222zm93.5 105.045.52.09.036-.212.246.044-.233 1.329.117.019.223-1.272.53.092-.223 1.276.124.022.234-1.333.22.039-.037.21.532.094.167-.952-.25-.044.423-2.413-1.81-.318-.426 2.429-.227-.041zm6.218-5.454.511.125.051-.209.243.06-.322 1.31.115.027.309-1.254.523.128-.31 1.258.123.03.323-1.313.216.053-.05.207.524.131.232-.939-.247-.061.585-2.378-1.784-.441-.59 2.394-.223-.056zm-35.061-32.18v2.419h-6.375v-2.42zm-23.25-41.246.343.4.163-.14.163.19-1.025.877.078.09.98-.84.352.408-.985.843.083.096 1.027-.88.145.169-.162.139.351.41.735-.627-.166-.193 1.86-1.594-1.195-1.397-1.872 1.604-.15-.176z"/><path fill="#987f00" d="M45.999 39.046H34.668v3.051h11.33Zm-19.038-8.661v-6.677h-3.026v6.677zm-5.799-6.486v6.638h-2.098v-6.638zm47.461 4.425h-5.647v2.06h5.647zM46.552 73.439l-.02 9.023-3.662-.008.02-9.023zm33.134 13.524h-7.05v2.976h7.05zm11.675-.877h6.829v4.96h-6.83zm9.488 12.644v2.787h1.492V98.73zm31.181-.463h-1.423v2.404h1.423ZM78.474 45.759v1.363h-4.885v-1.363zm2.741 8.557v1.363h-4.886v-1.363zM29.712 18.213h-5.854v2.736h5.854zm-1.125 1.303v.13h-3.602v-.13zm41.952-5.545h-5.853v2.736h5.853zm-1.125 1.303v.13h-3.601v-.13zM47.56 52.124h-5.853v2.737h5.853zm-1.125 1.303v.13h-3.601v-.13Zm3.411 16.751h-5.854v2.738h5.854zm-1.125 1.303v.131h-3.602v-.13zm70.715 25.362V90.99H116.7v5.853zm-1.303-1.125h-.13v-3.601h.13zM97.949 47.875h-4.482v2.736h4.482zm-.861 1.303v.13H94.33v-.13zm14.485-21.282V25.17h4.155v2.726m-14.257 2.26v-5.685h-3.205v5.685zm-1.526-1.093h-.153v-3.497h.153zm-24.532 1.131v-5.685h-3.204v5.685zm-1.525-1.093h-.154v-3.497h.154zm-20.344-4.492v2.915h-1.28V24.61m17.221-.001v2.915h-1.28V24.61m32.201 59.377-.003-1.44-5.216.012.004 1.44zm1.408-.61v1.225h4.256v-1.225zM46.676 33.264v-1.278h-2.904v1.28zm-.52 14.222v-1.278h-2.904v1.278zm70.276 5.014h4.17v-1.172h-4.17zm0 18.173h4.17v-1.172h-4.17z"/><path fill="none" stroke="#000" stroke-width=".2" d="m61.145 6.408 6.141-.632.208 2.356-6.141.554m-7.469-.436v6.095m-2.47-6.095v6.095m-8.418-8.871 3.881 11.217M40.589 6.345l3.96 11.007m61.812 19.421h6.087m-6.087 2.315h6.087m5.374.916v6.174h6.02m-3.088-6.174v6.174m-2.932 1.234v1.698h6.02m-11.16 47.796h-5.402m-1.035 0h-.463M11.133 8.03v1.543m0 1.113v4.168m119.963 103.659h4.937M21.562 3.059h-1.543m21.609 55.602v4.476m0-5.595v-1.234m2.851 47.096h-.617m6.927 0h-4.476m-.032 12.616h4.475m-5.968 0h-.926m75.731-90.921 4.776-.004m1.089.001h.926m-2.015-12.682h-4.784m5.873 0h.926m-24.501 44.912v-8.334m0 9.77v1.951m1.679-17.634-.718 6.048m2.275.221.719-6.048M95.747 32.514v.463m0-1.519v-.463m2.277 15.218v-.617h-4.167m-1.697 0h-.618v8.026h6.482m1.389 0h2.47m-7.1-2.933h7.1m-3.859-2.856v2.778m39.264 67.902h.618m-89.349-29.59h1.852v12.656h-1.852m-2.575 0H44.13V88.923h1.852M36.594 3.059h1.069M23.783 8.03v1.543m0 1.113v4.168m108.061 50.744v2.747m0 .992v2.747m0 13.651v2.754m0 1.03v2.747m0 .985v2.71"/><path fill="#444" d="M59.517 54.445a3.55 3.55 0 1 1 0-7.1 3.55 3.55 0 0 1 0 7.1zm23.74 0a3.55 3.55 0 1 1 0-7.1 3.55 3.55 0 0 1 0 7.1zm-11.701 0a3.55 3.55 0 1 1 0-7.1 3.55 3.55 0 0 1 0 7.1zm11.701 9.62a2.894 2.894 0 1 1 0-5.788 2.894 2.894 0 0 1 0 5.788zm-23.74 0a2.894 2.894 0 1 1 0-5.788 2.894 2.894 0 0 1 0 5.788zm12.039 0a2.894 2.894 0 1 1 0-5.788 2.894 2.894 0 0 1 0 5.788zm57.992 10.336h-1.852v-.918h-2.822v.918h-1.814v7.074h1.814v5.717h2.822v-5.717h1.852z"/><path d="M23.87 8.027V6.115h-.304v1.633H17.08v.28zm13.793-5.16v.382h8.145v-.362zM23.87 5.052V3.259l6.212-.02v-.362h-6.516v2.175zm7.269-2.175v.362h5.455v-.362zm-7.65 12.266v14.783h.382v-15.07h-2.156v.287zm49.788 18.179v-.344h-1.069v-.576h-.305v.5H51.864v-4.826h-.444l-.004 5.244zm1.221-.344v.344h22.09v-.344zm25.141.344h1.832v4.2l1.182-.001v-.69h-.84v-5.455h-.342v1.602H97.77v.344zM65.3 68.46l.003.877.69.003-.003-.88h11.178v.839h.687v-.84H89.07v.878h.649v-.878h11.255v.878h.868V65.35h-.315v2.041h-.553v.763H89.72v-.763h-.649v.763H77.855v-.725h-.687v.725H65.99v-.763h-.687v.763h-1.145v.305zm36.543-4.14v-2.957h.81v-.648h-1.125v3.605zm3.633 32.83v2.326h.306v-2.632h-1.183v.305zm7.402.65v-.65h.915v-.308h-1.111v.258h-.674v.7zm2.06-.957v.305l14.23.002v-.307zm17.092.307v4.349h-.191v.953h.687v-.953h-.19l-.02-5.144h-.324v-.394h-.297v.31H131v.573h-.496v.305z"/><path d="M105.782 105.123v-4.502h-.306v2.556h-4.616v-6.028h2.58v-.305h-1.626v-5.8H91.36v-4.959h10.454v-2.708l5.856-.02.01-.543.011-.544h-.383v.687h-5.189V73.8h3.281v-.381h-3.853v10.568h-11.55l-.05 18.542h-.876v.8h-.457v1.794zm1.526-31.323v7.497h.362l.02-7.878h-1.336v.381zM53.4 68.46v.877h.648v-.878h.42v-.305h-.42v-.763H53.4v.763h-.305v.305zm78.592 24.802v-.996h-.297v.973zm0-3.743v-1.03h-.297v1.03zm0-3.784V72.084h-.297v13.65zm0-16.398v-.992h-.297v.992zm0-3.739V64.3h-.297v1.297zm-.297-4.235v.763h.297V59.99h-.297v.725H131v.648zM46.857 2.867v.382h7.802v-.362zm-27.87 11.99v.286h1.679v-.272zM23.87 31.68h-.381l.014 1.499h.368zm17.837 10.607h4.787v3.739h-3.243v.181h3.425v-4.11H41.71zm.514 3.739h-.514v.18h.514m40.632-17.043V23.06h-.267v6.104m7.858-8.166v8.223h.268v-2.155l2.892-.01v-.153h-2.892V21m4.96 5.903h-.914v.162h.914m-23.769-2.556v6.676h.305V24.51m3.205-.001v6.982h.115l-.004-6.982m56.468 33.23v-2.022h-.297v2.022z"/></svg>