<?xml version="1.0" encoding="UTF-8"?>
<svg id="Layer_1" xmlns="http://www.w3.org/2000/svg" version="1.1" viewBox="0 0 1062.48 535.17">
  <!-- Generator: Adobe Illustrator 29.8.2, SVG Export Plug-In . SVG Version: 2.1.1 Build 3)  -->
  <defs>
    <style>
      .st0 {
        fill: #987f00;
      }

      .st1 {
        fill: #666;
      }
    </style>
  </defs>
  <g>
    <path class="st0" d="M579.02,385.22l1.34-.24-1.23-6.64-1.32.24,1.21,6.64ZM984.88,368.13l-3.4-.36.15-1.45,3.4.35-.15,1.45ZM973.39,360.27l-3.19-.35.28-2.85,3.19.35-.28,2.85ZM930.14,353.68l-2.35-.3.61-4.87,2.35.3-.61,4.87ZM916.26,351.77l-2.29-.29.6-4.75,2.29.29-.6,4.75ZM924.97,306.28l5.75.77-.38,2.72-5.75-.77.38-2.72ZM926.87,293.8l5.29.73.37-2.66-5.29-.73-.37,2.66ZM694.78,290.93l-.75,5.04-5.65-.86.75-5.04,5.65.86ZM695.51,286.24l-.65,4.24-5.65-.86.65-4.24,5.65.86ZM567.86,368.32l-6.46,1.26.65,3.58,6.46-1.26-.65-3.58ZM573.24,334.27l4.84-.98.67,3.67-4.84.98-.67-3.67ZM457.63,394.32l4.17-.88.62,3.08-4.17.88-.62-3.08ZM472.85,320.61l-.32-1.53-3,.62.32,1.53,3-.62ZM170.36,342.91l-5.94-.19-.08,3,5.94.19.08-3ZM600.97,91.02l4.26.64-.36,2.42-4.26-.64.36-2.42ZM540.88,75.25l.35-2.55-4.19-.57-.35,2.54,4.19.57ZM546.14,89.34l-8.02-1.11-.27,1.92,8.02,1.11.27-1.92ZM552.26,46.59l-7.89-1.09-.26,1.89,7.89,1.1.26-1.89ZM605.9,64.16l-7.23-.98-.23,1.73,7.23.98.23-1.73ZM595.35,249.09l5.13-.94.81,4.42-5.13.94-.81-4.42ZM444.63,238.47l-3.51-.23-.31,4.74,3.51.23.31-4.74ZM948.13,284.78l-.71,4.65-2.61-.38.7-4.65,2.62.38ZM715.67,265.78l-1.48-.23-.5,3.28,1.48.23.5-3.28ZM998.72,368.12l-2.13-.29.96-7.09,2.13.29-.96,7.09ZM837.31,353.17l-2.48-.3.86-7.3,2.48.3-.86,7.3ZM711.59,275.09c.24,2.25-1.8,2.94-1.03,7.36.25,1.44-3.57.7-3.41-.48.28-2.19,1.08-4.69,1.03-7.36-.02-1.26,3.27-.84,3.41.48h0ZM700.94,317.21c-.83-.24-.99-3.23-.3-5.15.7-1.94,2.54-1.35,3.07-.18.96,2.1,1.15,4.58.29,5.15-.66.44-1.57.62-3.07.18h0ZM449.38,375.17l4.74-.96-.29-1.43-4.74.96.29,1.43Z"/>
    <path class="st0" d="M585.99,378.43l-10.94,2.09.32,1.74,10.94-2.09-.32-1.74ZM679.61,414.92l1.77-.41-1.34-5.73-1.77.41,1.34,5.73Z"/>
  </g>
  <g>
    <path class="st1" d="M711.2,330.06l.02-.13.02-.13.53.08.53.08,1.81-12.19-4.02-.61.02-.13.02-.13,4.02.61.19-1.21.19-1.22-5.01-.72.29-1.88.29-1.88.13.02.13.02-.27,1.75-.27,1.75,4.74.68.79-5.16,1.08-6.69-2.7-.41-2.04-.27-.29,1.81-.29,1.81h-.12s-.12,0-.12,0l.3-1.96.3-1.96,2.17.29,2.83.43.18-1.17.18-1.16-2.01-.31-2.01-.31.02-.13.02-.13,2.01.31,2.01.31.78-5.73-6.08-.93-2.16-.32.04-.27.04-.26,1.47.22.52-3.39.36-2.24,1.7.27,1.7.28v.12s0,.12,0,.12l-1.59-.24-1.59-.24-.34,2.11-.5,3.25,3.25.5,3.26.5.5-3.25.34-2.11-.48-.07-.48-.07.02-.13.02-.13.48.07.48.07,2.3-14.79-3.12-.48-3.12-.48.55-3.39-1.54-.24.13-.86-.61-.09-.66-.1.1-.66.1-.66.66.1.61.08.17-1.09,1.52.24.03-.15.3.05-.11.7,1.45.22,1.65.25.11-.7.27.04-.11.7.46.07-.04.27-.65-.1-3.18-.49-.58,3.63-.33,1.95,2.99.46,2.99.46.33-1.95.59-3.63-.71-.11.04-.27.71.11.05-.25h.12l.11.03.2-1.3-.13-.02-.13-.02.1-.65.03-.21-1.4-.21-1.21-.18-.08.54-.27-.04.08-.54-1.65-.25-1.45-.22-.08.53-.26-.04.08-.54-2.38-.36-3.32-.53.02-.13.02-.14-2.78-.42-2.78-.43-.02.14-.02.13-5.07-.75-6-.92-2.01,13.17-1.82,11.32,3.35.52,3.17.5-.03.33-.37-.06-.53-.08-.31,2.08-.89-.12-.89-.12-.1.63-.23,1.5,2.88.44,3.08.51.18-1.37.12.03.12.03-.15,1.35,3.12.46.95.15-.03.12-.04.26-.95-.14-.95-.15-.76,4.95-.76,4.95-.13-.02-.13-.02.31-2.11.31-2.1-.51-.09-1.78-.29.02-.13.05-.43,1.8.28.53.08.38-2.4.41-2.7-1.98-.3-4.35-.69-.21,1.37-.21,1.38-.89-.12-.89-.12-.21,1.31-.18,1.01,4.3.62-.08.46v.12s-8.16-1.16-8.16-1.16l-2.45,16.6-2.03,13.28,4.81.74,7.25,1.1.32-2.07.32-2.07.12.04.11.04-.3,2.05-.3,2.05,4.89.76,7.33,1.12-.02.13-.02.13,1.48.23,1.48.22ZM694.05,321.92l-.13-.02-.13-.02,1.48-9.66,1.48-9.66.1.02h.1s.03.05.03.05l.03.04-1.47,9.62-1.47,9.62ZM702.4,317.46c-.42,0-.89-.09-1.46-.25-.83-.24-.99-3.23-.3-5.15.7-1.94,2.54-1.35,3.07-.18.96,2.1,1.15,4.58.3,5.15-.41.28-.92.45-1.61.43h0ZM699.58,287.52l-.13-.02-.13-.02.04-.36.04-.36-.52-.09-.23-.05.02-.13.02-.13.34.05.63.1.03.04.03.04-.07.46-.07.47ZM717.5,285.6l-2.69-.41,1.25-8.2,2.62.4.03.04.03.04-1.24,8.13ZM717.27,285.3l1.16-7.6-.03-.04-.03-.04-2.09-.32-1.17,7.67,2.16.33ZM711.25,285.13l-.66-.1-.66-.1.1-.66.1-.66.66.1.66.1-.1.66-.1.66ZM699.82,283.38l-.66-.1-.66-.1.1-.66.1-.66.66.1.66.1-.1.66-.1.66ZM709.55,283.25c-.89.04-2.53-.54-2.4-1.27.44-2.48,1.14-5.62,1.03-7.36-.07-1.15,3.34-.67,3.41.48.12,1.98-1.83,3.49-1.03,7.36.13.61-.58.78-1.01.79h0ZM712.12,279.41l-.66-.1-.66-.1.1-.66.1-.66.66.1.66.1-.1.66-.1.66ZM700.7,277.66l-.66-.1-.66-.1.1-.66.1-.66.66.1.66.1-.1.66-.1.66ZM713,273.7l-.66-.1-.66-.1.1-.66.1-.66.66.1.66.1-.1.66-.1.66ZM701.57,271.95l-.66-.1-.66-.1.1-.66.1-.66.66.1.66.1-.1.66-.1.66ZM702.44,266.24l-.66-.1-.66-.1.1-.66.1-.66.66.1.66.1-.1.66-.1.66ZM893.18,187.84l-5.72-.61-.23,2.13,5.72.61.23-2.13ZM591.56,171.68h-6.05v2.29h6.05v-2.29ZM572.44,162.87v-1.97s-5.57.02-5.57.02v1.97s5.57-.02,5.57-.02h0ZM546.83,103.55l-5.58-.73-1.01,7.67,5.58.73,1.01-7.67ZM397.51,115.61l-2.33-.1-.24,5.82,2.33.1.24-5.82h0ZM388.65,194.33l-7.53-1.93-1.41,5.5,7.53,1.93,1.41-5.5ZM471.58,206.59l-5.68-.9-.36,2.3,5.68.9.36-2.29ZM440.95,405.73l-1.11-5.9-2.36.46,1.15,5.89,2.32-.45ZM680.5,418.84l1.8-.45-.07-.31.37-.1.07.31,4.57-1.11-1.66-7.1-4.57,1.11,1.36,5.79-.37.1-.61-2.61-1.8.45.91,3.91h0ZM534.3,264.5l-.33-2.07-5.77.92.33,2.07,5.77-.92ZM549.57,220.48h-5.66v1.99h5.66v-1.99ZM870.16,139.59l-1.85-1.34-3.32,4.6,1.86,1.34,3.31-4.6Z"/>
    <path class="st1" d="M931.21,288.3l-.44,3.17-2.77-.38-1.46-.2.44-3.17.41-2.93,1.46.2,2.77.38-.41,2.93ZM933.35,282.44l-.41,2.97-3.02-.42-2.52-.35.41-2.97.38-2.73,2.52.35,3.02.42-.38,2.73Z"/>
    <path class="st1" d="M945.15,281.22v.06l.34.05.34.05-1.06,7.66.21.03.04-.3.04-.3.85.12.5.09.19-1.41.19-1.4-.51-.09-.85-.12.12-.84.06-.37,1.64.23.96.15-.04.22h.07s.07.02.07.02l-.1.72-.1.72h-.07s-.07-.02-.07-.02l-.32,2.27-.34,2.49-1.05-.16-1.74-.24-2.28,16.46-2.28,16.46-2.99-.41-2.99-.41.83-6.01.83-6.01h-.07s-.07-.02-.07-.02l-.83,6.01-.83,6.01-6.01-.83-5.51-.76,1.46-10.59,1.46-10.59-.06-.02-.06-.02.16-1.14.16-1.14h.07s.07.02.07.02l.47-3.42.47-3.42.46.07.96.13-.24,1.74-.12.94,2.26.31,2.26.31v-.12s.17-1.15.17-1.15l-1.12-.15-1.12-.15.08-.59.11-.83.98.13.98.13.09-.62.09-.62h-.05s-.06-.01-.06-.01l-.08.55-.08.55-1.01-.14-.19-.03.19-1.4.26-1.88.19.03,1.01.14-.13.89-.06.41h.05s.09.02.09.02l.09-.62.09-.62.6-4.35.6-4.35,2.91.4,2.91.4-.83,6.02-.83,6.02h.07s.07.02.07.02l.83-6.02.83-6.02,1.71.24,1.71.24v-.07s.07-.29.07-.29l1.87.26-.05.29ZM926.66,300.36l-.37,2.67h.07s.07.02.07.02l.37-2.67.37-2.67h-.07s-.07-.02-.07-.02l-.37,2.67ZM925.66,307.82l-.18,1.3,1.13.16,1.13.16.06-.37.12-.85,1.12.15,1.12.15.13-.92.09-.56-2.24-.31-2.25-.31-.21,1.42Z"/>
    <path class="st1" d="M783.49,197.6l-1.78-.21.17-1.33,1.78.21-.17,1.33ZM786.19,191.85l-.55,4.5-3.73-.45.55-4.5,3.73.45Z"/>
    <path class="st1" d="M779.15,214.63l.24-2,1.73.2v.06s-.04.23-.04.23l1.25.15.03-.22v-.07s1.25.15,1.25.15l.26-2.19.19-1.6-.3-.04v-.06s.02-.08.02-.08l.3.04.62-5.1.54-4.52-2.3-.28v-.07s.02-.07.02-.07l2.3.28.16-1.49-.44-.05.02-.13.43.05.17-1.33-1.8-.22-.17,1.33.41.05-.02.13-2.73-.33v-.07s.02-.07.02-.07l.13.02.13.02.74-5.98-1.62-.2-.49,3.87h-.07s-.07-.02-.07-.02l.49-3.87-3.77-.49-.74,5.98,3.77.49.12-.99h.06s.07.02.07.02l-.12.99.13.02.13.02v.07s-.01.07-.01.07l-4.16-.54-.2,1.83-.26,2.12h-.07s-.07-.02-.07-.02l-.14,1.14-.14,1.14h.07s.07.01.07.01l-.27,2.22-.34,2.8,5.82.74v.08s-.02.06-.02.06l-5.82-.74-.32,2.6-.38,3.18,2.57.35,2.59.32ZM782.73,209.18l-1.16-.14v-.07s.02-.08.02-.08l1.16.14v.09s-.02.05-.02.05ZM567.34,54.11l-.42,3.02-.55-.07-.55-.07v.04s-.02.04-.02.04l.55.08.55.08-.21,1.49-.21,1.49-.55-.07-.55-.07v.05s-.01.05-.01.05l.55.08.55.08-.42,3.02-.42,3.02-1.48-.2-1.48-.2.42-3.02.42-3.02.54.08.54.08v-.06s.02-.06.02-.06l-2.69-.37-2.69-.37v.06s-.02.06-.02.06l.55.08.55.08-.42,3.02-.42,3.02-1.48-.21-1.48-.21.41-3.02.41-3.02.55.08.55.08v-.06s.02-.06.02-.06l-1.15-.16-1.15-.16v.06s-.02.06-.02.06l.55.08.55.08-.42,3.02-.42,3.02-1.48-.2-1.48-.2.42-3.02.42-3.02.55.08.55.08v-.06s.02-.06.02-.06l-.6-.08-.6-.08-.43,3.08-.43,3.08-3.08-.43-3.08-.43-.08.59-.08.6h.05s.05.01.05.01l.08-.55.08-.55,3.02.42,3.02.42-.21,1.48-.21,1.48-3.02-.41-3.02-.41.08-.55.08-.55h-.06s-.06-.02-.06-.02l-.16,1.17-.16,1.16h.05s.05.01.05.01l.08-.55.08-.55,3.02.42,3.02.42-.2,1.48-.2,1.48-2.29-.31-2.28-.31v.05s-.03.05-.03.05l2.29.32,2.29.32-.21,1.48-.21,1.48-3.02-.41-3.02-.41.21-1.49.21-1.49.36.05.36.05v-.06s.02-.06.02-.06l-.36-.05-.36-.05.08-.55.08-.55h-.04s-.04-.01-.04-.01l-.13.84-.13.84-.18,1.3-.18,1.3,3.08.43,3.08.43-.05.35-.05.35.38.05-.21,1.53-.38-.06-.05.36-.05.36-1.52-.21-1.3-.18-.91.68-.91.68-.02.21-.02.21h.05s.05.01.05.01l.03-.19.03-.19.85-.65.85-.65,1.29.18,1.51.21-.21,1.48-.2,1.48-2.26-.31-2.04-.28.02-.14.02-.14h-.06s-.06-.02-.06-.02l-.02.15-.02.15-.99-.14-.76-.11-.08.6-.08.6h.05s.05.01.05.01l.08-.55.08-.55,3.02.42,3.02.42-.21,1.48-.21,1.48-3.02-.41-3.02-.41.08-.55.08-.55h-.06s-.06-.02-.06-.02l-.37,2.69-.37,2.69h.06s.06.02.06.02l.08-.55.08-.55,3.02.42,3.02.42-.2,1.48-.2,1.48-3.02-.42-3.03-.42.08-.55.08-.55h-.06s-.06-.02-.06-.02l-.08.55-.08.55-.54-.08-.34-.05-.06.35-1.3-.19.06-.35-.22-.02-.55-.08.08-.55.08-.55h-.05s-.05-.01-.05-.01l-.08.55-.08.55-3.03-.42-3.03-.42.21-1.48.21-1.48,3.03.42,3.02.42-.07.55-.07.55h.05s.05.01.05.01l.04-.32.04-.32.1-.83.1-.83h-.04s-.04-.01-.04-.01l-.08.55-.08.55-3.02-.42-3.02-.42.21-1.49.21-1.49,3.03.42,3.02.42-.08.55-.08.55h.05s.05.01.05.01l.09-.58.09-.58.07-.57.07-.57h-.05s-.05-.01-.05-.01l-.08.55-.08.55-3.02-.42-3.02-.42.2-1.48.2-1.48,3.03.42,3.02.42-.08.55-.08.55h.05s.05.01.05.01l.08-.56.08-.57.21-1.58.21-1.58-1.23-.17-1.23-.17.11-.76.11-.76-1.07-.15-1.07-.15.1-.73.1-.73,2.3.32,2.3.32.43-3.09.43-3.09.08-.59.08-.58h-.05s-.05-.01-.05-.01l-.08.55-.08.55-.36-.05-.36-.05v.05s-.01.05-.01.05l.36.05.36.05-.42,3.02-.42,3.02-3.02-.42-3.02-.42.21-1.48.21-1.48,2.29.31,2.28.31v-.05s.01-.05.01-.05l-2.29-.32-2.29-.32.21-1.49.21-1.49,2.28.32,2.28.32v-.05s.01-.05.01-.05l-2.28-.32-2.28-.32.21-1.49.21-1.49,3.02.42,3.03.42-.08.55-.08.55h.05s.05.01.05.01l.08-.56.08-.57.16-1.17.16-1.17h-.05s-.05-.01-.05-.01l-.16,1.13-.16,1.13-3.02-.42-3.02-.42.41-3.02.41-3.02,3.02.42,3.03.42-.16,1.12-.16,1.12h.05s.05.01.05.01l.16-1.13.16-1.12.64-4.61.64-4.61,1.49.21,1.49.21-.43,3.07-.42,3.07.6.08.6.08v-.05s.01-.05.01-.05l-.55-.08-.55-.08.42-3.02.42-3.02,1.49.21,1.49.2-.42,3.02-.42,3.02-.55-.08-.55-.08v.05s-.01.05-.01.05l.55.08.55.08,1.59.22,1.6.22.55.08.55.08v-.05s.01-.05.01-.05l-.55-.08-.55-.08.42-3.02.42-3.02,1.49.21,1.49.2-.42,3.02-.42,3.02-.55-.08-.55-.08v.05s-.01.05-.01.05l.58.09.58.09.57.07.57.07v-.05s.01-.05.01-.05l-.55-.08-.55-.08.42-3.02.42-3.02,1.49.21,1.49.21-.42,3.02-.42,3.02-.55-.08-.55-.08v.05s-.01.05-.01.05l.58.09.58.08.58.07.58.07v-.05s.01-.05.01-.05l-.55-.08-.55-.08.42-3.02.42-3.02,1.48.2,1.48.2-.42,3.02-.42,3.02-.55-.08-.55-.08v.05s-.01.05-.01.05l.58.09.57.08.58.07.57.07v-.05s.01-.05.01-.05l-.54-.08-.54-.08.42-3.02.42-3.02,1.48.2,1.48.21-.42,3.02ZM548.09,57.71l-.04.27.28.04.28.04.04-.27.04-.27-.28-.04-.28-.04-.04.27Z"/>
    <path class="st1" d="M545.01,55.77l-.2,1.48-3.03-.42-3.02-.42.21-1.48.21-1.48,3.03.42,3.02.42-.21,1.48ZM550.41,84.73l-.21,1.49-3.02-.42-3.02-.42.21-1.49.21-1.49,3.02.42,3.02.42-.21,1.49ZM562.82,62.94l-.42,3.02-1.48-.2-1.48-.2.42-3.02.42-3.02,1.48.2,1.48.2-.42,3.02Z"/>
    <path class="st1" d="M593.04,93.62l.65.86-.1.73-.1.73-1.76-.24-2.26-.31.2-1.48.2-1.48,1.5.2,1,.14.65.86ZM598.39,98.94l-.26,1.93h.05s.05.01.05.01l.08-.54.08-.54,3.02.4,3.01.4-.2,1.48-.2,1.49-3.02-.41-3.02-.41.08-.55.07-.55h-.05s-.05-.01-.05-.01l-.15,1.15-.16,1.15h.05s.05.01.05.01l.07-.54.07-.54,3.02.41,3.02.41-.2,1.47-.2,1.48-3.02-.41-3.02-.41.08-.55.08-.55h-.05s-.05-.01-.05-.01l-.07.55-.08.55-.55-.08-.31-.04-.05.31-.63-.09-.65-.09.05-.31-.28-.04-.55-.07.07-.55.07-.55h-.05s-.05-.01-.05-.01l-.07.55-.07.55-3.02-.41-3.02-.41.2-1.48.2-1.48,3.02.41,3.02.41-.07.54-.07.54h.05s.05.01.05.01l.15-1.15.16-1.15h-.05s-.05-.01-.05-.01l-.08.55-.07.55-3.02-.41-3.02-.41.2-1.48.2-1.48,3.01.41,3.01.41-.07.55-.07.55h.05s.05.01.05.01l.26-1.93.26-1.93,1.48.2,1.48.2-.26,1.93Z"/>
    <path class="st1" d="M602.57,68.09l-.29,2.09h.05s.05.01.05.01l.08-.55.08-.55,3.02.41,3.02.41-.2,1.47-.2,1.48-3.02-.41-3.02-.41.07-.54.07-.54h-.05s-.05-.01-.05-.01l-.29,2.13-.29,2.13,3.07.42,3.07.42-.41,3.02-.41,3.02-3.07-.42-3.07-.42-.08.6-.08.6h.05s.05.01.05.01l.08-.55.07-.55,3.02.41,3.02.41-.2,1.48-.2,1.48-2.28-.31-2.28-.31v.05s-.01.05-.01.05l2.28.31,2.27.31-.2,1.48-.2,1.48-2.27-.3-2.27-.3v.05s-.01.05-.01.05l2.27.31,2.27.31-.2,1.47-.2,1.47-3-.39-3-.39v-.02s-.03-.02-.03-.02l.41-3.01.41-3.01.35.04.35.04v-.05s.01-.05.01-.05l-.36-.05-.36-.05.07-.55.08-.55h-.05s-.05-.01-.05-.01l-.5,3.67-.5,3.67,1.23.17,1.22.17-.1.76-.1.76.16.02.16.02.92.12.92.12-.1.72-.1.72-2.3-.31-2.3-.31-.08.6-.08.6h.05s.05.01.05.01l.07-.55.08-.55,3.02.41,3.02.41-.2,1.48-.2,1.48-3.02-.41-3.02-.41.07-.55.07-.55h-.05s-.05-.01-.05-.01l-.09.66-.09.66-1.48-.2-1.48-.2v-.11s.03-.11.03-.11h-.11s-.11-.03-.11-.03l.02-.17.02-.17h-.09s-.09-.01-.09-.01l-.03.16-.03.16-.56-.08-1.06-.14.1-.76.1-.76-.68-.88-.68-.88-1.02-.14-1.52-.21.05-.36.05-.36-.3-.04.21-1.54.3.04.05-.36.05-.36,2.86.39,2.86.39-.28,2.07-.28,2.07h.1s.1.03.1.03l.28-2.07.28-2.07h.11s.11.03.11.03l.08-.6.08-.6h-.05s-.05-.01-.05-.01l-.08.55-.07.55-3.02-.41-3.02-.41.2-1.48.2-1.48,3.02.41,3.02.41-.08.55-.08.55h.05s.05.01.05.01l.16-1.16.16-1.16h-.05s-.05-.01-.05-.01l-.07.55-.07.55-3.02-.41-3.02-.41.2-1.48.2-1.48,3.02.41,3.02.41-.07.54-.07.54h.05s.05.01.05.01l.15-1.15.16-1.15h-.05s-.05-.01-.05-.01l-.08.55-.07.55-3.02-.41-3.02-.41.2-1.48.2-1.48,3.01.41,3.01.41-.07.55-.07.55h.05s.05.01.05.01l.23-1.73.23-1.73h-.05s-.05-.01-.05-.01l-.15,1.13-.15,1.13-3.02-.41-3.02-.41.41-3.02.41-3.02,3.02.41,3.02.41-.15,1.13-.15,1.13h.05s.05.01.05.01l.44-3.26.44-3.26h-.05s-.05-.01-.05-.01l-.07.54-.07.54-3.02-.41-3.02-.41.2-1.48.2-1.48,3.02.41,3.02.41-.07.55-.08.55h.05s.05.01.05.01l.16-1.16.16-1.16h-.05s-.05-.01-.05-.01l-.08.55-.08.55-3.02-.41-3.02-.41.2-1.48.2-1.48,3.02.41,3.02.41-.07.54-.07.54h.05s.05.01.05.01l.08-.55.07-.53,1.48.2,1.48.2-.28,2.07Z"/>
    <path class="st1" d="M595.3,97.79l-.2,1.48-3.02-.41-3.02-.41.2-1.48.2-1.48,3.02.41,3.02.41-.2,1.49ZM604.5,99.04l-.2,1.48-3.02-.41-3.02-.41.2-1.48.2-1.48,3.02.41,3.02.41-.2,1.49ZM598.64,73.24l-.2,1.49-3.02-.41-3.02-.41.2-1.48.2-1.48,3.02.41,3.02.41-.2,1.48ZM607.84,74.49l-.2,1.48-3.01-.41-3.01-.42.2-1.48.2-1.48,3.02.41,3.02.41-.2,1.49Z"/>
    <path class="st1" d="M458.13,375.36l.17,1.18.08-.02.38-.07.24,1.24-.38.07h-.08s.03.19.03.19l-2.53.51-3.47.74.4,1.94.4,1.94h.07s.07,0,.07,0l-.38-1.87-.38-1.87,3.39-.72,2.45-.5,1.15,5.58.93,4.57-.32.07-1.02.22-.16-.76-.15-.76h-.06s-.06.02-.06.02l.16.76.15.76-.64.13-.64.13-.16-.76-.15-.76-.08.02-.08.02.15.76.16.76-.59.12-.59.12-.05.03-.04.03-.16-.78-.16-.78-.08.02-.08.02.16.76.16.76-.64.13-.88.15-.33-1.64-.5-2.38,2.76-.55,2.11-.43-.02-.07-.03-.07-2.1.42-2.75.54-.06-.28-.06-.28-.07.02-.07.02,1.1,5.33.93,4.59,1.56-.3.91-.18.31,1.54,2.15-.44.29,1.53-7.64,1.6-1.7-7.97-.08.02-.08.02.45,2.2.23,1.24-3.19.65-2.38.49-.49-2.55-.77-3.89,2.38-.49,3.19-.65.09.45.09.45.08-.02.08-.02-.39-1.93-.39-1.93-2.08.43-1.62.33.02.08.02.08,1.54-.31,2-.41.27,1.33.27,1.33-3.18.65-2.38.49-.27-1.33-.27-1.33.33-.07.33-.07-.02-.08-.02-.08-.33.07-.33.07-.09-.38-.2-.88h-.07s-.33.08-.33.08l-.33-1.61.33-.09h.08s-.06-.33-.06-.33l-.27-1.4,2.46-.51,3.32-.69-.29-1.45-.29-1.45h-.08s-.08.03-.08.03l.28,1.37.28,1.37-3.24.67-2.38.49-.33-1.55-.42-2.4,2.38-.49,3.24-.67.1.45h.07s.07,0,.07,0l-.09-.47,4.13-.82,4.93-1,.29,1.42ZM987.24,369.99l1.65-15.16-11.58-1.24-6.86-.76.03-.28-2.01-.19-.03.27-2.71-.28-1.65,15.16,5.85.65-.02.22,2.05.24.02-.22,15.26,1.59ZM984.88,368.13l-3.4-.36.16-1.45,3.4.36-.15,1.45ZM973.39,360.27l-3.19-.35.28-2.85,3.19.35-.28,2.85ZM943.28,344.68h.11s.11.03.11.03l-.18,1.43h-.11s-.11-.03-.11-.03l-2.47,19.57-41.45-5.16.61-5.51-.12-.03-.12-.03.74-5.95.13.02.13.02,1.04-8.07-.12-.03-.12-.03.15-1.36.13.02.13.02.26-1.96,34.96,4.37-.13,1-.13,1,.13.02.13.02.13-1,.13-1,6.25.79-.24,1.9ZM928.17,350.38l-.38,3.01,1.45.18,1.45.18.15-1.24.16-1.24-.21-.03-.21-.03.22-1.77.08-.62-1.24-.16-1.24-.16-.24,1.86ZM914.35,348.47l-.38,3.01,1.45.18,1.45.18.16-1.24.16-1.24-.21-.03-.21-.03.22-1.77.06-.51-1.24-.16-1.24-.16-.22,1.74ZM939.64,349.12l-.17,1.37-1.4-.18-1.4-.18-.02.16-.02.16,1.53.19,1.53.19.19-1.53.19-1.53-.13-.02-.13-.02-.17,1.37ZM485.09,320.61l.83,4.01.13-.03.13-.03.27,1.29.17.79-.13.03-.13.03.12.64.03.13-8.91,1.85-8.91,1.85-.82-3.93-1.09-5.32-.13.03-.13.03-.05-.14-.26-1.26.13-.03.13-.03-.05-.24-.05-.24,1.66-.35,1.41-.28.38,1.81,3-.62-.38-1.83,5.99-1.24,5.74-1.2.89,4.27ZM473.16,324.42l.27,1.29,3.14-.65,3.14-.65-.27-1.29-.32-1.55-3.14.65-3.14.65.32,1.55ZM780.37,317.06l-.02.13,5.77.86-4.26,28.42-37.27-5.57-.02.13-.05.4-1.85-.25.05-.4.02-.13-13.11-1.99,3.5-23.54-.13-.02-.26-.05.31-1.89.26.05.13.02.42-3.02,5.52.82.02-.13.06-.35,5.87.92-.06.35-.02.13,3.71.54-.88,5.68,4.4.66.02-.13.02-.13-4.14-.62.84-5.41,6.38.97-.87,5.38-.38-.07-.04.17-.02.13.34.05.35.05.88-5.68,18.16,2.72.04-.12.08-.29,6.28.91-.07.31ZM847.1,275.67l-.02.15,2.77.47,5.79.89-.53,3.46-.41,2.59.15.02.15.02-.49,3.27-.32,2.17-.15-.02-.15-.02-2.27,14.59-2.39,15.55.15.02.15.02-.84,5.42-.15-.02-.15-.02-.05.32-10.86-1.72-12.65-1.95.31-1.99.68-4.38-.15-.02-.15-.02.83-5.51.15.02.15.02,1.04-6.3-.15-.02-.15-.02.81-5.48.15.02.15.02.38-2.23,2.13.31,2.13.31.32-2.05.32-2.05-.18-.03-.18-.03-.29,1.9-.29,1.9-1.96-.3-1.96-.3.5-3.6-.15-.02-.15-.02.87-5.49.15.02.15.02.87-5.51,1.01-6.52,1.55.23,1.78.27.02-.15.02-.15,5.31.83,6.31.98-.02.15ZM171.55,262.14h.04s.97,2.23.97,2.23l.97,2.22-2.9,1.27-2.9,1.27-.98-2.24-.98-2.24,2.86-1.26,2.86-1.26h.04ZM159.6,323.66v.07s3.62.1,3.62.1l7.89.22-.27,9.73-.26,9.12-2.44-.07-2.44-.07-.04,1.57,1.78.05-.03,1.44,1.55.04,1.55.04-.05,1.83v.66s.21.02.21.02l-.15,5.2h-.24s-.42,15.03-.42,15.03l-.41,14.64-14.82-.42-9.03-.27.83-29.41.84-29.8,3.94.11,3.64.09v-.07s0-.11,0-.11l2.38.07,2.38.07v.11ZM565.03,390.63l12.01-2.19-1.7-9.31,6.14-1.12,1.76,9.64,1.84-.33-1.77-9.69,2.15-.39,1.71,9.41.46-.08-3.26-17.88.8-.15-1.12-5.94-.77.14-3.17-17.4.8-.13-.95-5.94-.93.15-2.12-11.64-11.06,2.02,2.14,11.72-.65.12-1.1-6.02-2.03.37-.11-.58,2.05-.37-.95-5.21-11.02,2.01.95,5.21,7.7-1.4.1.56-7.51,1.37,1.11,6.08-1.12.2,1.03,5.65.93-.17,2.14,11.75-.89.18,1.08,5.93.94-.19.39,2.05,7.39-1.35,1.08,6.02-.54.1-.99-5.51-3.43.63.32,1.79-1.7.31.3,1.62-1.73.32-.61-3.41,1.52,8.46,6.87-1.25-.26-1.41.49-.09.25,1.37.88-.16.15.8-8.16,1.49,2.16,11.86ZM573.79,377.14l-5.38-29.99,6.42-1.15.44,2.46-.72.13-.35-1.95-4.67.84,2.01,11.19,4.8-.86-1.3-7.24.59-.11,1.41,7.87-5.39.97,3.17,17.66-1.03.18ZM188.46,414.88l.04.03.04,2.42.04,2.42-3.16.05-3.16.05-.04-2.45-.04-2.45,3.13-.05,3.13-.05.04.03ZM445.12,253.22l.35-4.69.35-4.69,1.07.08,2.17.17.3-3.92.3-3.93.04-.48.04-.47-2.49-.19-1.35-.1-.02.29-.02.29-.89-.07-.89-.07.02-.29.02-.29-3.16-.24-3.75-.28-.02.32-.02.32-.29-.02-.29-.02-.1,1.29-.1,1.29-.19,2.51-.19,2.51.33.02.25.02-.07.89-.07.89-.24-.02-.33-.02-.22,2.98-.23,2.98-.06.82-.06.82.38.03h.2s-.02.3-.02.3l-.02.29,3.75.28,3.16.24.02-.29.02-.29.89.07.89.07-.02.29-.02.29.3.02.3.02ZM444.31,243.22l-3.51-.23.31-4.74,3.51.23-.31,4.74ZM219.13,237.2l-6.15-.35-.32,5.63,6.16.35.32-5.63h0ZM113.32,399.75l.15-3.92,5.32.2-.15,3.93-5.32-.2ZM104.21,402.32l-6.5-.23.11-3.25,6.5.22-.11,3.25ZM106.18,346.38l-6.54-.19-.09,3.24,6.54.19.09-3.24ZM90.4,385.12l6.58.19-.12,3.44-6.58-.22.12-3.4ZM80.63,406.24l-6.65-.19.1-3.65,6.65.19-.1,3.65ZM81.4,371.5l-6.69-.22-.12,3.58,6.69.22.12-3.58ZM57.69,394.05l-5.27-.19-.12,3.4,5.27.19.12-3.4ZM82.21,348.97l-6.58-.18.09-3.33,6.58.19-.09,3.32ZM74.59,343.95l-6.61-.26.14-3.51,6.62.26-.14,3.51ZM115.1,346.09l5.27.21.12-3.66-5.27-.21-.12,3.67ZM115.91,323.88l5.36.16.09-3.4-5.36-.16-.09,3.4ZM113.68,413.38l-2.3-.17-.44,5.78,2.3.17.44-5.78ZM118.49,462.17l-1.97-1.2-2.96,4.87,1.97,1.2s2.97-4.87,2.97-4.87ZM120.88,294.3l-3.39-2.21-3.89,5.97,3.39,2.21,3.89-5.97ZM250.43,230.1l-6.16-.22-.2,5.61,6.15.22.2-5.61h0ZM390.8,255.03l-2.12-.92-2.28,5.28,2.12.92,2.29-5.28Z"/>
    <path class="st1" d="M573.47,218.94l-5.7-.83-.33,2.26,5.7.83.33-2.26ZM947.56,233.65l3.04-3.58c-1.92-1.63-3.84-3.25-5.75-4.88l-3.04,3.58,5.76,4.88ZM736.66,279.72l-2.34-.33-.82,5.77,2.34.33.82-5.77ZM728.71,241.46l-5.5-.77-.85,6.09,5.5.77.85-6.09h0ZM123.34,449.75l-2.31-.25-.61,5.76,2.31.25.61-5.76ZM179.51,435.09l-2.35-.13-.33,5.8,2.35.14.33-5.81Z"/>
  </g>
</svg>