<?xml version="1.0" encoding="UTF-8"?>
<svg id="Layer_1" xmlns="http://www.w3.org/2000/svg" version="1.1" viewBox="0 0 1062.48 535.17">
  <!-- Generator: Adobe Illustrator 29.8.2, SVG Export Plug-In . SVG Version: 2.1.1 Build 3)  -->
  <defs>
    <style>
      .st0 {
        fill: #898989;
      }

      .st1 {
        fill: #987f00;
      }

      .st2 {
        fill: #555;
      }
    </style>
  </defs>
  <path class="st1" d="M540.88,75.25l.35-2.55-4.19-.57-.35,2.54,4.19.57h0ZM546.14,89.34l-8.02-1.11-.27,1.92,8.02,1.11.27-1.92ZM552.26,46.59l-7.89-1.09-.26,1.89,7.89,1.1.26-1.89h0Z"/>
  <g>
    <path class="st2" d="M550.59,84.73l-.21,1.49-3.02-.42-3.02-.42.21-1.49.21-1.49,3.02.42,3.02.42-.21,1.49ZM542.21,77.29l-.21,1.49-3.02-.42-3.03-.42.2-1.49.2-1.49,3.03.42,3.03.42-.21,1.49h.01ZM554.01,60.07l-.21,1.48-3.02-.42-3.02-.42.21-1.48.2-1.48,3.02.42,3.02.42-.2,1.48ZM545.2,55.71l-.21,1.48-3.03-.42-3.03-.42.21-1.48.21-1.48,3.03.42,3.03.42-.21,1.48ZM555.29,50.83l-.21,1.49-3.02-.42-3.02-.42.21-1.49.21-1.49,3.02.42,3.02.42-.21,1.49Z"/>
    <path class="st0" d="M566.83,58.71l-1.07,7.7-6.14-.85-6.14-.85.48-3.46.48-3.47h-.1s-.05.35-.05.35l-.05.36-3.08-.42-3.08-.42-.3,2.14-.3,2.14h.06l.06.02.08-.55.08-.55,3.03.42,3.03.42-.21,1.49-.21,1.48-3.03-.41-3.03-.42.08-.55.08-.55h-.12s-.16,1.14-.16,1.14l-.16,1.15h.06l.06.02.08-.55.08-.55,3.03.42,3.03.42-.21,1.48-.21,1.48-3.03-.41-3.03-.42.08-.55.08-.55h-.06l-.06-.02-.16,1.15-.16,1.15h.06l.06.02.08-.55.08-.55,3.02.42,3.02.42-.2,1.49-.2,1.49-3.03-.42-3.03-.42.08-.55.08-.55h-.06l-.06-.02-.08.6-.08.6,3.09.43,3.09.43-.42,3.03-.42,3.03-3.08-.42-3.08-.42-.08.6-.08.6h.1s.08-.54.08-.54l.08-.55,3.03.42,3.03.42-.2,1.48-.21,1.48-3.03-.42-3.03-.42.08-.54.08-.54h-.06l-.06-.02-.15,1.15-.16,1.15h.1s.08-.54.08-.54l.08-.55,3.03.42,3.03.42-.21,1.48-.21,1.48-3.03-.41-3.03-.41.08-.55.08-.55h-.06l-.06-.02-.37,2.69-.37,2.69h.12s.08-.54.08-.54l.08-.55,3.03.42,3.02.42-.2,1.49-.2,1.49-3.03-.42-3.03-.42.08-.55.08-.55h-.06l-.06-.02-.08.55-.08.55-.55-.08-.55-.08-.04.27-.77-.11.04-.27-.55-.08-.55-.08.08-.55.08-.55h-.1s-.08.54-.08.54l-.08.55-3.03-.42-3.03-.42.21-1.49.21-1.49,3.03.42,3.03.42-.08.55-.08.55h.1s.09-.57.09-.57l.09-.58.07-.57.07-.57h-.1s-.08.54-.08.54l-.08.55-3.03-.42-3.03-.42.21-1.49.21-1.49,3.03.42,3.03.42-.08.55-.08.55h.1s.09-.57.09-.57l.09-.58.07-.57.07-.57h-.1s-.08.54-.08.54l-.08.55-3.02-.42-3.03-.42.2-1.49.2-1.49,3.03.42,3.03.42-.08.55-.08.55h.1s.08-.56.08-.56l.08-.57.21-1.58.22-1.58-2.3-.32-2.3-.32.1-.72.1-.72.45.06.46.06.11-.77.11-.77,1.84.25,1.84.25.43-3.09.43-3.09.08-.59.08-.59h-.1s-.08.54-.08.54l-.08.55-.36-.05-.36-.05v.1s.35.05.35.05l.36.05-.42,3.03-.42,3.03-3.03-.42-3.03-.42.21-1.49.21-1.49,2.28.32,2.28.32v-.1s-2.27-.32-2.27-.32l-2.28-.32.21-1.49.21-1.49,2.28.32,2.28.32v-.1s-2.27-.32-2.27-.32l-2.28-.32.21-1.49.21-1.49,3.03.42,3.03.42-.08.55-.08.55h.1s.08-.56.08-.56l.08-.57.16-1.17.16-1.17h-.1s-.16,1.12-.16,1.12l-.16,1.13-3.03-.42-3.02-.42.41-3.03.41-3.03,3.03.42,3.03.42-.16,1.12-.16,1.12h.1s.16-1.11.16-1.11l.16-1.12.22-1.6.22-1.6.08-.55.08-.55h-.1s-.08.54-.08.54l-.08.55-3.03-.42-3.03-.42.21-1.48.21-1.49,3.03.42,3.03.41-.08.55-.08.55h.1s.09-.57.09-.57l.09-.58.07-.57.07-.57h-.1s-.08.54-.08.54l-.08.55-3.03-.42-3.03-.42.21-1.49.21-1.49,3.03.42,3.03.42-.08.55-.08.55h.1s.08-.54.08-.54l.08-.55,1.49.21,1.49.21-.43,3.08-.43,3.08,3.08.43,3.08.43-.04.35-.04.35h.1s.48-3.45.48-3.45l.47-3.42,6.14.85,6.14.85-1.06,7.66-.03.09Z"/>
  </g>
</svg>