<svg xmlns="http://www.w3.org/2000/svg" width="141.8" height="131.571"><g xmlns="http://www.w3.org/2000/svg" transform="rotate(90 70.9 70.9)"><g id="Third_Floor" class="shadow"><path id="Floor-3" fill="#666" d="M94.707 25.116v.234l-69.496-.006-.002.907 24.437.002v12.205l-12.482-.002v.906h2.045l.09 1.709h-6.032V40.04h-4.61l-.013.142-.011.145h-4.178v3.234h6.506v3.633h-.168v-3.377h-4.926v6.104h4.926v-1.83h.168v4.005h-.168v-1.832h-4.926v4.617l4.926-.19v-1.833h.168v4.065h-.168v-2.004l-4.926.21v11.006h4.926v-3.51h.168v3.759l-3.254-.004-3.252-.004v3.232h6.914v.305H3.783l-.006 48.045h14.42v-2.024h-.303l.006-43.869h15.946l-.002 27.961h.906l.002-10.715h14.742l-.002 10.715h.906l.006-47.603h-.906l-.004 32.613H34.752l.004-41.082h7.363l6.332.006v.256h-.703v1.695h3.295v-1.696h-1.326v-.255l1.097.002v-2.883l-8.695-.008h-1.85l-.091-1.709 26.047.002-.198.295.27.18-.365.548.353.235.049-.072.357.236-.002 12.201H51.95l.002-12.408h-.906l-.006 59.447h16.553l.006-59.447h-.311l.135-.203-.594-.397.334-.5-.172-.115 29.838.004V25.116Zm-40.785 1.137 40.785.004v12.205l-40.785-.004Zm-20.655 17.7h.582l-.001 25.96h-.58v-12.99Zm19.35 11.161h13.375v2.322H52.617Zm-21.824 2.59h.168v4.12h-.168v-2.06Zm21.156 1.86h14.74l-.004 38.5h-14.74Zm17.121 4.81-.006 35.652H85.62l.006-35.652h-.906l-.002 8.482H69.975l.002-8.482Zm17.108 0-.004 35.652h.906l.002-15.27h14.74l-.002 15.27h.906l.006-35.652h-.906l-.002 16.107H87.082l.002-16.107Zm-72.485 7.691h3.301v3.043h-.303v2.072h.303l-.004 21.785H4.685l.004-24.894h9.004Zm56.282 5.067h14.742l-.004 20.773H69.97v-.082h.191v-1.895h-.191ZM4.684 103.24H16.99l-.002 12.693H4.683Z"/><g id="Wall-3" fill="none" stroke="#000" stroke-width=".2"><path d="M33.35 43.954v-.51M33.35 41.75v-.679M10.973 72.605h.926v-2.693M9.43 72.605H4.453v-2.692M30.793 61.066h-2.187"/></g><g id="Stairs-3" fill="#987f00"><g id="Stairs-3-down"><path id="stair-127" d="M30.14 40.345h-5.685v3.205h5.685Zm-1.093 1.526v.153H25.55v-.153Z"/><path id="stair-128" d="M30.178 66.403h-5.685v3.204h5.685Zm-1.093 1.525v.154h-3.497v-.154Z"/><path id="stair-69" d="M18.197 112.104v5.854h2.736v-5.854Zm1.303 1.125h.13v3.602h-.13Z"/><path id="stair-96" d="M13.955 71.277v5.853h2.736v-5.853Zm1.303 1.125h.13v3.601h-.13Z"/><path id="stair-97" d="M52.108 94.256v5.853h2.737v-5.853Zm1.303 1.125h.13v3.601h-.13Z"/><path id="stair-100" d="M70.162 91.97v5.854H72.9V91.97Zm1.303 1.125h.131v3.602h-.13Z"/><path id="stair-101" d="M96.827 22.38h-5.853v2.736h5.853Zm-1.125 1.303v.13h-3.601v-.13Z"/><path id="stair-129" d="M47.859 43.867v4.482h2.736v-4.482Zm1.303.861h.13v2.758h-.13Z"/></g></g></g></g></svg>