<svg xmlns="http://www.w3.org/2000/svg" width="141.8" height="131.571"><g xmlns="http://www.w3.org/2000/svg" transform="rotate(90 70.9 70.9)"><g id="Second_Floor" class="shadow"><g id="Floor-2" fill="#666"><path d="M33.268 99.041V98.03h-1.259v-2.861h14.192v4.883H33.268ZM52.484 14.298v11.085h-1.172v2.22h19.346v-2.22h-1.174V14.298h-5.35v11.21h-6.298v-11.21H55.16ZM73.403 37.102v-2.976h9.958v5.952h-9.958ZM25.154 30.243v9.717h5.05v.384h-5.75v3.205h6.64v.153h-12.59v11.865h2.021v2.557h-2.021v8.088h12.531v.193h-6.541v3.203l4.215.002h2.195v.281h-3.396v20.073h5.373V69.89h-.252v-.28h.334v-3.206h-.948v-.193h.948v-22.51h-.953v-.152h.953v-3.206h-1.668v-.384h.804v-1.782h-2.693v-7.935Zm-3.14 21.623h8.964v6.219h-8.965v-1.178h.192v1.025H26.4v-2.861h-4.195v.764h-.191V53.85ZM83.971 41.41l-1.44.003v1.627l-8.132.021-.007-2.808 9.576-.026Z"/></g><g id="Obstacles-2" fill="#444"><path d="M21.233 48.912h10.649v.756h-10.65ZM20.886 46.012h9.877v.757h-9.877ZM21.65 43.702h8.644v.421H21.65ZM20.814 60.432h4.657v.557h-4.657ZM28.09 60.432h4.657v.557H28.09ZM28.09 63.288h4.657v.557H28.09ZM20.814 63.288h4.657v.557h-4.657ZM21.624 65.791h7.817v.42h-7.817ZM24.618 58.085h1.705v.421h-1.705Z"/></g><g id="Stairs-2" fill="#987f00"><g id="Stairs-2-down"><path id="stair-62" d="M27.88 30.243h-2.726v-4.155h2.726"/><path id="stair-63" d="M24.593 88.272h2.915v1.28h-2.914"/><path id="stair-130" d="M24.593 72.331h2.915v1.28h-2.914"/><path id="stair-131" d="m83.971 41.41-1.44.003.012 5.216 1.44-.004Z"/><path id="stair-132" d="M83.361 40.002h1.225v-4.256h-1.225Z"/><path id="stair-140" d="M33.248 95.14H31.97v2.904h1.28Z"/><path id="stair-141" d="M47.47 95.66h-1.278v2.904h1.278Z"/><path id="stair-155" d="M52.484 25.384v-4.17h-1.172v4.17Z"/><path id="stair-226" d="M70.657 25.384v-4.17h-1.172v4.17Z"/><path d="M24.28 56.749c.056-.126.06-.287.151-.38.046-.045.194-.028.25-.042.322-.08.514.132.805.21.212.058.423.037.516.223.025.051.167.252.12.368-.04.101-.149.128-.218.195a.673.673 0 0 1-.297.148c-.085.015-.508-.059-.62-.058-.113 0-.505-.039-.673-.223-.077-.085-.07-.366-.035-.441Z"/></g><g id="Stairs-2-up"><path id="stair-127" d="M30.14 40.345h-5.685v3.205h5.685Zm-1.093 1.526v.153H25.55v-.153Z"/><path id="stair-128" d="M30.178 66.403h-5.685v3.204h5.685Zm-1.093 1.525v.154h-3.497v-.154Z"/><path id="stair-69" d="M18.197 112.104v5.854h2.736v-5.854Zm1.303 1.125h.13v3.602h-.13Z"/><path id="stair-96" d="M13.955 71.277v5.853h2.736v-5.853Zm1.303 1.125h.13v3.601h-.13Z"/><path id="stair-97" d="M52.108 94.256v5.853h2.737v-5.853Zm1.303 1.125h.13v3.601h-.13Z"/><path id="stair-100" d="M70.162 91.97v5.854H72.9V91.97Zm1.303 1.125h.131v3.602h-.13Z"/><path id="stair-101" d="M96.827 22.38h-5.853v2.736h5.853Zm-1.125 1.303v.13h-3.601v-.13Z"/><path id="stair-129" d="M47.859 43.867v4.482h2.736v-4.482Zm1.303.861h.13v2.758h-.13Z"/></g></g><g id="Wall-2" fill="none" stroke="#000" stroke-width=".2"><path d="M27.939 32.438v-.463h-2.785M27.939 33.827v5.617h-2.785M23.145 56.46v-1.388M24.302 56.46v-1.388M25.46 56.46v-1.388M20.447 55.576v-3.663h-.463M18.966 51.913h-.463"/></g></g></g></svg>