<svg xmlns="http://www.w3.org/2000/svg" viewBox="0 0 977.1 977.1"><g xmlns="http://www.w3.org/2000/svg" transform="matrix(-1 0 0 -1 977.1 977.1)"><g data-name="Second Floor"><path d="M478.391 150.707v136.225h-7.941v272.691h8.001v134.16l245.505.01v-133.83h54.989V449.782h16.527v-53.269h-17.089V286.785h-54.427V150.707Zm101.016 190.75h8.169l5.72 5.748v8.211l-5.72 5.749h-8.169l-5.721-5.749v-8.211zm.457 73.049h7.368l2.522 2.522h28.601l2.815 2.791v7.215l-2.878 2.876h-28.653l-2.589 2.588h-7.232l-2.587-2.588h-28.387l-2.961-2.961v-7.13l2.793-2.791h28.646zm-81.455 2.522h30.392l2.815 2.791v7.215l-2.878 2.876H498.58l-2.961-2.961v-7.13zm80.918 68.909h8.152l5.706 5.741v8.202l-5.706 5.744h-8.152l-5.707-5.744v-8.202z" data-name="Structure" /><path d="M492.617 288.895v7.776l-9.466 5.148-.005 41.907h-1.72v-11.405l-9.358-.015v39.172h9.359V358.33h1.719v14.866h-11.078v33.674h-7.743v5.132l-2.244 4.169v13.568l2.244 4.172v5.454h7.743v33.687h11.116v16.555h-1.719v-14.836h-9.397v39.059h9.397v-12.45h1.72v25.705h-1.72v-8.274h-9.397v40.224h18.545v-8.449l-9.148-5.034v-5.557h1.72v4.514l9.148 5.032v9.494h31.125v-11.673h5.453v1.719h-3.734v9.954h27.27v-9.954h-4.642v-1.72c28.766 0-39.662-.025 41.057-.025v11.7h9.89v-5.691h1.719v5.69h34.855v-3.34h1.72v3.34H660.4v-8.982h-7.913v3.175h3.963v1.72h-5.682v-4.895h-13.611v.837l-.112.503v1.582h-1.719v-2.085h-3.704v-8.952h-3.323v6.967h.843v1.72H615.18v-1.72h9.923v-14.084h-6.88v12.455h-10.617v-12.455h-7.134v14.084h9.89v1.72h-9.89v.743h-1.72v-14.723l-45.94-.022v-1.719h5.95v-13.428h-14.416v13.428h5.622v1.72h-7.341v-34.76h8.308v1.72h-6.59v13.509H573.8v-4.677l-1.246-1.242 1.216-1.217 1.204 1.204h15.07l11.565-11.565h24.14v-9.916h4.64v1.72h-2.922v8.196h3.357v-4.604h-1.637v-1.719h4.99v1.72h-1.634v4.603h3.795V491.4H632.8v-1.719h3.537v-23.328h-2.677v-1.72h2.677v-83.079h-3.654v-1.719h3.654v-22.643h-2.854v-1.719h2.854v-8.059h-4.07v4.707h1.216v1.719h-3.993v-1.72h1.058v-4.706h-2.592v8.06h2.811v1.718h-4.53v-9.778h-3.546v.62l-1.72-.001v-2.003h-20.1l-11.378-11.047h-12.494l-2.757 2.805-1.216-1.212.773-.773v-7.697h-29.547v14.762h7.516v1.72l-9.235-.001V309.7h7.323v1.72h-5.604v14.147h14.514V311.42h-4.445v-1.72l44.603.01v-14.98h1.72v1.65h9.304v1.719h-9.305l.043 15.393h7.066v-13.646h10.345v13.646h7.22v-15.393h-9.769v-1.719h13.972v1.72l-.602.033v6.936h3.297v-6.97h-.631v-1.719h3.962v-1.65h1.719v2.506h22.495v-8.341h-7.113v2.923h4.092v1.719h-5.81v-4.642h-13.664v2.964h-1.72v-2.964h-34.902v2.964h-1.719v-2.964H588.45v10.16h-34.13l-.502.123h-6.86v-1.72h5.423v-8.563h-26.81v8.564h16.939v1.72h-18.657v-10.284zm4.254 6.038h21.98v7.852h-21.98v-1.719h20.26v-4.414h-20.26zm-1.792 14.172h10.35v1.72h-8.63v10.353h12.296V309.71h4.543v11.468h12.967v-10.353h-8.614v-1.72h10.333v23.697h-1.72v-9.482h-9.571v5.932h-1.72v-5.932h-1.675v19.972h12.966v-6.846h1.72v21.622l-1.053.021h-18.176v-11.5h-12.297v9.605h7.72v1.719h-9.439V337.18h1.72v6.545h12.296V323.32h-12.297v8.936h-1.719zm23.888 18.196h1.719v12.54h3.284v1.72h-5.003zm-3.654 4.955h1.72v8.445h-1.72zm52.924 8.626 1.217 1.216-2.488 2.488h-8.816v-1.718h8.102zm11.17.575h8.169l5.72 5.748v8.211l-5.72 5.749h-8.169l-5.721-5.749v-8.211zm-97.98 7.362h1.72v3.963h-1.72zm139.545 6.792h1.719v3.094h-21.57l-1.582 1.582-1.217-1.212 2.085-2.09h20.565zm-77.721 2.843h23.164l10.306 9.985-.052 26.076h-1.719v-2.326h-28.49v15.047h7.027v1.719H535.6v-1.72h7.604v-9.708h-21.061v9.709h6.455v1.719l-25.133-.001-1.913-1.912 1.216-1.217 1.414 1.41h11.794v-7.726h-.624v-1.72h.624v-24.45h-.624v-1.719l27.899-.017zm48.13 7.623 1.217 1.216-1.187 1.186v10.486l5.141-.06v-9.228h11.776v1.595h6.099v-1.595h8.218v6.607h-1.719v-4.888h-4.78v4.888h-1.72v-3.293h-6.098v3.293h-1.72v-4.888h-8.337v7.508h8.337v-.708h1.72v.708h6.099v-.708h1.719v.708h4.78v-.708h1.72v1.64h2.057v1.719h-2.058v17.232h-1.719v-16.384h-9.525v3.558l-.077.534h-1.685l-.101-.534h-2.585v14.519h2.686v-1.216h1.719v2.935h-4.405v5.037h13.973v-5.1h1.72v6.818h-32.954V389.37h1.72v17.866h11.153v-24.833l-11.154.06v1.858h-1.719v-16.543zm-95.755 5.543h17.114v1.72h-.62v4.28h-1.719v-4.28h-1.92v4.28h-1.72v-4.28h-9.416v5.922l14.775-.001v7.453h-1.719v-5.733h-1.92v5.733h-1.72v-5.733h-9.416v7.375h14.775v6.997h-1.719v-5.278h-1.92v5.278h-1.72v-5.278h-9.416v7.714h16.301v1.72h-16.301l.023.63 1.086 1.085-1.213 1.216-1.615-1.617zm114.013 17.11h1.719v8.901h-1.72zm-34.689 8.901h1.72v11.323h-8.076v-1.719h6.356zm-15.785 9.605h3.838v1.719h-3.838zm20.699 7.27h7.368l2.522 2.522h28.601l2.815 2.791.03 1.54h-21.866v4.349l21.865.094-.029 1.232-2.878 2.876h-28.653l-2.589 2.588h-7.232l-2.587-2.588h-28.387l-2.961-2.961-.109-1.241h21.606v-4.361l-21.497-.083v-1.445l2.793-2.791h28.646zm-51.063 2.522 2.815 2.791v1.528h-21.383v4.443h21.383v1.244l-2.878 2.876H498.58l-2.961-2.961v-7.13l2.79-2.791zm-25.336 20.409h50.022v1.719h-7.027v4.998h1.625v1.72h-1.625v8.646h2.51v-5.458h-1.37v-1.719h4.34v1.72h-1.25v5.457h2.582v-8.646h-3.15v-1.72h4.87v3.19h8.87v2.341h6.98v1.72h-6.98v1.53h-1.719v-3.873h-7.152v5.458h14.256v-2.135h1.72v2.135h4.27v-15.364h-7.016v-1.72h8.736v40.492l-9.717 9.887h-8.075v-1.72h7.357l8.715-8.875v-18.607h-6.836c0 15.683-.026-8.564-.026 14.548h-3.463v-1.72h2.399v-8.084h-2.794v4.59h1.208v1.72h-4.135v-1.72h1.208v-4.59h-2.923v8.085h3.228v1.719H557.5v-5.69h-2.553v-1.72h2.553l-.013-7.138h-13.4l-.018 7.138h7.87v1.72h-9.589v-3.615h-7.396v-5.243H520.66v3.524h.829v1.719h-.83v9.212h9.258v1.72h-14.621v-1.72h1.121v-22.824h-19.61v6.344h9.958v-4.577h1.719v4.577h2.548v-4.577h1.72v6.296h-15.946v7.444h9.959v-5.192h1.719v5.192h2.548v-5.192h1.72v6.911h-15.946v5.598h9.959v-3.672h1.719v3.672h2.548v-3.672h1.72v5.391h-17.665v-28.453l1.521-1.522 1.217 1.216-1.019 1.019v1.478h7.822v-.691h1.72v.691h11.673v-2.94h-11.674l-.234.4h-1.485v-2.119h13.393v-4.71h-13.844l-1.41 1.41-1.216-1.217zm55.7 0h3.283v1.719h-3.283zm30.27 0h33.632v6.98h-1.72v-5.261h-14.394v5.949h3.567v2.41h-1.72v-.691h-1.847v14.814h1.848v-.876h1.72v3.872h10.826v-16.431h1.72v16.43h1.558v1.72h-3.696v.773h-1.72v-.773h-2.925v2.321h-1.72v-2.321h-16.258v8.342h8.69v-4.99h1.718v4.99h5.85v-2.75h1.72v2.75h2.926v-4.99h1.719v6.71h-24.342v-10.062h-5.433v10.831l2.235 2.239-1.216 1.212-2.738-2.734v-15.592h1.719v2.325h5.433v-9.206h2.234v-3.615h1.72v3.615h1.547v1.719h-3.782v7.487h5.033v-11.961h-1.25v-1.72h1.25v-11.797h-12.185v18.85h-1.72zm19.366 12.14h1.72v8.945h-1.72zm-85.077 12.56h8.605v1.719h-8.605zm11.7 10.931h9.142v13.028h8.921v1.719h-10.64v-13.028h-7.424zm43.903 12.869h8.152l5.706 5.741v8.202l-5.706 5.744h-8.152l-5.707-5.744v-8.202zm20.186-.15 1.469 1.466h20.979v3.288h-1.72v-1.569H600.27l-1.968-1.968zm-86.266 2.54v11.541h14.234v2.488h-14.234v14.896h4.933v2.115h-1.72v-.396h-3.213v3.914h3.214v-2.036h1.719v2.036h7.672v-9.45h1.72v23.568H517.32v-1.72h8.532v-9.358h-12.605v11.122h-3.427v-11.122h-13.013v9.359h8.037v1.719h-9.756v-22.978h1.72v8.86h13.012v-20.53h-2.66v10.84h1.243v1.72h-2.962v-12.56h-8.634v5.985h-1.719l.065-20zm-31.781 5.399h1.72v4.022h-1.72zm74.944 8.14h10.126l2.295 2.295-1.216 1.212-1.792-1.788h-9.413zm-74.944 28.941h1.72v6.125h-1.72zm14.96 13.522h22.247v7.895h-22.246v-1.719h20.527v-4.456h-20.527zm35.894 3.034h9.976v1.72h-9.976z" data-name="Floor" fill="#666" /><path d="M496.58 298.836h20.563m14.613 124.733h-21.523m35.541-.083h21.606m53.82.094h-21.866M496.64 548.292h20.327" stroke-width="4.443" fill="none" stroke="#987f00" /></g></g></svg>